<svg id="Layer_1" xmlns="http://www.w3.org/2000/svg" viewBox="0 0 145.5 42.1667"><style>.st0{fill:#002a4e}</style><path class="st0" d="M50.8337 12.625c-.1705-.5204-.5373-.8872-1.1174-.8872-.785 0-1.2629.7336-1.2629 2.1754-.017 1.4421.4099 2.1758 1.297 2.1758.529 0 .853-.1876 1.2028-.9128l1.092.2903c-.3667 1.0663-1.1688 1.6124-2.2949 1.6124-1.57 0-2.474-1.1518-2.474-3.1657 0-2.0135.904-3.1653 2.474-3.1653 1.1775 0 1.86.5293 2.1501 1.6214l-1.0667.2557zM55.239 16.9934l-.068-.3842c-.427.2904-.8277.4697-1.3824.4697-.8017 0-1.2029-.5717-1.2029-1.1775 0-1.0066.819-1.536 2.5425-1.7402v-.3758c0-.3415-.273-.529-.6484-.529-.495 0-.768.2646-.9726.5463l-.6825-.5206c.273-.4696 1.0065-.828 1.655-.8107 1.1946.0257 1.7062.4606 1.7062 1.792v2.0903c0 .2215.0173.4438.0854.6397H55.239zm-.1108-2.1243c-.7082.1362-1.4845.2814-1.4845.9044 0 .3328.2133.5204.512.5204.3328 0 .7506-.2813.9725-.4696v-.9552zM57.2887 16.9934v-6.16h1.058v6.16h-1.058zM59.5252 11.7378v-.9899h1.058v.99h-1.058zm1.058 5.2556h-1.058V12.557h1.058v4.4365zM63.1535 13.41v3.5834h-1.058V13.41h-.614v-.853h.6057v-.546c0-.956.3839-1.263 1.254-1.263h.6994v.853h-.29c-.4436 0-.597.137-.597.478v.478h.8957v.853h-.8958zM66.38 12.4714c1.2028 0 1.928.8954 1.928 2.304 0 1.4073-.7252 2.3035-1.928 2.3035-1.2032 0-1.9281-.8962-1.9281-2.3036 0-1.4085.725-2.304 1.9281-2.304zm0 .8531c-.5888 0-.8705.4609-.8705 1.4508s.2817 1.4505.8705 1.4505c.5884 0 .87-.4606.87-1.4505s-.2816-1.4508-.87-1.4508zM69.0868 16.9934V12.557h.9729v.7592h.017c.256-.5293.6141-.8273 1.2456-.8447v1.118c-.0514-.0082-.1108-.0082-.1875-.0082-.529 0-.99.605-.99.7161v2.6961h-1.058zM71.9975 16.9934V12.557h.9726v.4779c.3925-.2737.8447-.5634 1.365-.5634.8875 0 1.314.58 1.314 1.4849v3.0371h-1.058v-2.8836c0-.5978-.1875-.7853-.546-.7853-.4606 0-.8104.265-.9896.47v3.199h-1.058zM76.7776 11.7378v-.9899h1.058v.99h-1.058zm1.058 5.2556h-1.058V12.557h1.058v4.4365zM81.2757 16.9934l-.0688-.3842c-.4265.2904-.8274.4697-1.382.4697-.8017 0-1.203-.5717-1.203-1.1775 0-1.0066.8191-1.536 2.5427-1.7402v-.3758c0-.3415-.273-.529-.6486-.529-.495 0-.768.2646-.9725.5463l-.6825-.5206c.273-.4696 1.0065-.828 1.655-.8107 1.1945.0257 1.7066.4606 1.7066 1.792v2.0903c0 .2215.0166.4438.0854.6397h-1.0323zm-.1111-2.1243c-.7083.1362-1.4846.2814-1.4846.9044 0 .3328.2133.5204.512.5204.3327 0 .7509-.2813.9726-.4696v-.9552zM88.676 12.4714c-.1791-.478-.5459-.8024-1.1002-.8024-.512 0-.8788.205-.8788.683 0 1.058 3.1732.8363 3.1732 2.8325 0 1.263-.7933 1.8944-2.1583 1.8944-1.0066 0-1.9534-.5634-2.3036-1.4589l.9726-.4265c.2814.58.6488.9635 1.3393.9635.5891 0 1.0413-.2215 1.0413-.819 0-1.2108-3.174-.9726-3.174-2.8666 0-1.1003.9212-1.7235 1.9883-1.7235.9892 0 1.8082.4946 2.175 1.3908l-1.0747.3327zM90.9137 12.5569V11.089h1.058v1.4679h.8697v.853h-.8697v2.5088c0 .2383.1187.3071.3834.3071.1626 0 .3328-.0514.4863-.0854v.8704c-.2896.034-.546.068-.8357.068-.785 0-1.092-.3924-1.092-1.024V13.41h-.6148v-.853h.6148zM96.0091 16.9934l-.0687-.3842c-.4266.2904-.8273.4697-1.3817.4697-.8024 0-1.2032-.5717-1.2032-1.1775 0-1.0066.819-1.536 2.5425-1.7402v-.3758c0-.3415-.273-.529-.6488-.529-.4946 0-.7676.2646-.9726.5463l-.6821-.5206c.273-.4696 1.0065-.828 1.6547-.8107 1.1949.0257 1.7068.4606 1.7068 1.792v2.0903c0 .2215.0167.4438.0855.6397H96.009zm-.111-2.1243c-.708.1362-1.4846.2814-1.4846.9044 0 .3328.2133.5204.512.5204.3327 0 .751-.2813.9725-.4696v-.9552zM98.178 12.5569V11.089h1.0573v1.4679h.8704v.853h-.8704v2.5088c0 .2383.1194.3071.3841.3071.162 0 .3328-.0514.4863-.0854v.8704c-.2897.034-.546.068-.8357.068-.785 0-1.092-.3924-1.092-1.024V13.41h-.6148v-.853h.6148zM101.5923 14.9455c.0167.9219.4266 1.2803.9212 1.2803s.7252-.2223.9899-.5294l.7676.478c-.4099.6315-1.0066.9045-1.8597.9045-1.1517 0-1.877-.8962-1.877-2.3036 0-1.4085.7253-2.304 1.9277-2.304 1.1608-.0082 1.809.9726 1.809 2.0393v.435h-2.6787zm1.7062-.7162c-.0174-.614-.3411-.9729-.8531-.9729s-.8364.3588-.853.9729h1.706zM111.2282 10.8333h1.1768V14.69c0 1.8-1.1087 2.389-2.3626 2.389-1.2546 0-2.3633-.589-2.3633-2.389v-3.8566h1.1768v3.908c0 .9982.3925 1.3477 1.1865 1.3477.7933 0 1.1858-.3495 1.1858-1.3477v-3.908zM113.5943 16.9934V12.557h.9726v.4779c.3925-.2737.8447-.5634 1.365-.5634.8871 0 1.3137.58 1.3137 1.4849v3.0371h-1.0574v-2.8836c0-.5978-.1882-.7853-.546-.7853-.4612 0-.8107.265-.9899.47v3.199h-1.058zM118.3751 11.7378v-.9899h1.058v.99h-1.058zm1.058 5.2556h-1.058V12.557h1.058v4.4365zM120.3084 12.5569h1.058l.7336 3.0034h.0167l.751-3.0034h1.058l-1.2713 4.4365h-1.1088l-1.2372-4.4365zM125.4164 14.9455c.0167.9219.4265 1.2803.9211 1.2803s.7253-.2223.99-.5294l.7676.478c-.4099.6315-1.0066.9045-1.8597.9045-1.1518 0-1.877-.8962-1.877-2.3036 0-1.4085.7252-2.304 1.9277-2.304 1.1609-.0082 1.809.9726 1.809 2.0393v.435h-2.6787zm1.7061-.7162c-.0173-.614-.341-.9729-.853-.9729s-.8364.3588-.853.9729h1.706zM129.1024 16.9934V12.557h.9725v.7592h.0167c.2563-.5293.6148-.8273 1.2455-.8447v1.118c-.0507-.0082-.1104-.0082-.1875-.0082-.5286 0-.9892.605-.9892.7161v2.6961h-1.058zM134.2735 13.7256c-.2132-.2302-.4946-.4692-.8273-.4692-.4099 0-.5974.1702-.5974.4352 0 .7593 2.2181.4356 2.2181 2.0563 0 .9211-.6995 1.331-1.629 1.331-.7086 0-1.2887-.316-1.6811-.8962l.7085-.5286c.2473.3411.58.6398 1.0323.6398.3752 0 .6307-.205.6307-.5036 0-.7593-2.218-.4863-2.218-2.0306 0-.8277.6995-1.2883 1.4679-1.2883.5883 0 1.1767.2216 1.5609.6738l-.6656.5804zM135.9394 11.7378v-.9899h1.058v.99h-1.058zm1.058 5.2556h-1.058V12.557h1.058v4.4365zM138.4958 12.5569V11.089h1.0573v1.4679h.8704v.853h-.8704v2.5088c0 .2383.1195.3071.3842.3071.1619 0 .3327-.0514.4862-.0854v.8704c-.2896.034-.546.068-.8357.068-.785 0-1.092-.3924-1.092-1.024V13.41h-.6148v-.853h.6148zM141.0786 17.7103c.162.034.2898.034.4433.034.3675 0 .5717-.1027.7002-.35.1021-.2133.1702-.3411.1702-.5204 0-.1618-.0854-.3494-.1362-.5286l-1.1858-3.7884h1.0664l.7335 2.7304h.0167l.7593-2.7304h1.058l-1.3991 4.4449c-.469 1.2712-.8447 1.6123-1.7144 1.6123-.2564 0-.3842-.0166-.512-.034v-.8698zM47.5742 31.2198V21.463h2.6218l1.8784 6.8107h.0271l1.892-6.8107h2.6488v9.7568h-1.6217v-7.6755h-.0272l-2.1892 7.6755h-1.4189l-2.1622-7.6755h-.0271v7.6755h-1.6218zM62.1302 31.3552c-2.6623 0-4.0947-1.8249-4.0947-5.0141s1.4324-5.0135 4.0947-5.0135c2.662 0 4.0945 1.8242 4.0945 5.0135s-1.4324 5.0141-4.0945 5.0141zm0-8.4597c-1.5272 0-2.2298 1.1621-2.2298 3.4456-.0271 2.284.689 3.4462 2.2298 3.4462 1.527 0 2.2296-1.1622 2.2296-3.4462 0-2.2835-.7026-3.4456-2.2296-3.4456zM67.8881 31.2198V21.463h1.9462l3.8377 6.6488h.0271V21.463h1.757v9.7568h-1.7976l-3.9864-6.946h-.0271v6.946H67.888zM83.8355 21.4491v1.568H81.282v8.2027h-1.8652V23.017h-2.554v-1.5678h6.9728zM85.2555 31.2198V21.463h6.4598v1.5672h-4.5946v2.3244h3.338v1.568h-3.338v2.7293h4.7433v1.5679h-6.6085zM93.3652 31.2198V21.463h3.8923c2.216 0 3.108 1.2838 3.122 2.892.013 1.2024-.5948 2.1757-1.784 2.5133l2.1486 4.3515h-2.068l-1.8375-3.973h-1.6082v3.973h-1.8652zm1.8652-5.4866h1.3783c1.4595 0 1.9055-.4592 1.9055-1.3782 0-.9191-.5544-1.3783-1.581-1.3783h-1.7028v2.7565zM102.3259 31.2198V21.463h6.4599v1.5672h-4.5947v2.3244h3.338v1.568h-3.338v2.7293h4.7433v1.5679h-6.6085zM113.5165 25.3275l1.6756-3.8645h1.9458l-2.6891 5.8652v3.8916h-1.8645v-3.8916l-2.6892-5.8652h1.9458l1.6756 3.8645zM121.5046 21.463h3.6221c1.9458 0 3.2025.6488 3.3108 2.3918 0 1.0135-.4188 1.7972-1.4865 2.216 1.2705.5141 1.7026 1.0949 1.7026 2.5814 0 1.5138-1.0677 2.5676-3.554 2.5676h-3.595V21.463zm1.8653 3.8916h1.8645c.892 0 1.338-.5134 1.338-1.1893 0-.6752-.446-1.1886-1.338-1.1886h-1.8645v2.378zm0 4.3515h1.8645c1.0816 0 1.5547-.4863 1.5547-1.4186 0-.933-.4731-1.4192-1.5547-1.4192h-1.8645v2.8378zM132.4111 21.4491h2.3245l2.7703 9.7707h-1.8513l-.5405-2.1084h-3.0816l-.5808 2.1084h-1.8513l2.8107-9.7706zm.0271 6.1222h2.2703l-1.0949-4.2437h-.0264l-1.149 4.2437zM140.7369 25.3275l1.6755-3.8645h1.9458l-2.689 5.8652v3.8916h-1.8646v-3.8916l-2.689-5.8652h1.9457l1.6756 3.8645z"/><g><path class="st0" d="M20.6197 17.247c-4.709 0-8.5263 3.8172-8.5263 8.5258 0 4.7113 3.8173 8.5293 8.5263 8.5293 4.7105 0 8.5274-3.818 8.5274-8.5293 0-4.7086-3.8169-8.5258-8.5274-8.5258zm.0388 15.4003c-3.8204 0-6.9151-3.094-6.9151-6.9148 0-3.8151 3.0947-6.9127 6.915-6.9127 3.8177 0 6.914 3.0976 6.914 6.9127 0 3.8207-3.0963 6.9148-6.914 6.9148z"/><path class="st0" d="M1.28 24.6252s.3804.4738 1.5651.2293c.5649-.1153.8542.0208.9577.0791.1028.0611.1254.1112.116.1584-.0153.089-.0886.2584-.2063.3585 0 0 .5787.1681 1.0945.0833.5186-.0875 1.1198-.093 1.2032-.1097.0836-.014.2344.0222.1715.1778-.0643.15-.2008.3668-.2008.3668s.4377-.0806 1.2474-.221c.3435-.061.8597-.093 1.3497.0043.4866.1028.4866.803 1.1942 1.0086.7058.214.6829-1.4949.6954-1.9618.0142-.4612.1629-.6877.5324-.9725.5655-.4404.428-1.1198.37-1.5964-.0598-.478.8728-.949 1.126-1.5074.248-.5669.0431-1.149-.0646-1.3782-.1098-.2293.0699-.4134.2005-.5468.305-.3029.7811-1.1406.5737-1.4408-.2038-.3-1.3535.0264-2.5522 1.1185-1.2025 1.0914-2.0667 2.3667-2.3939 2.9545-.0396.0667-.0875-.0792-.01-.2751.0774-.2015.746-1.8645 2.0843-3.181 1.3404-1.3171 2.621-1.7978 3.6085-1.5658.9879.228.7781 1.0448.6103 1.4977-.1657.446-.6762.7656-.7832 1.2887-.107.5224.0458.9155.0917 1.4088.0454.496-.0948.8294-.5846 1.3504-.2007.214-.6298.6878-.605.924.0072.057.1562.3348-.1394 1.1587-.2959.8225-.9635 1.0226-.992 1.2532-.0274.2376-.0246 1.3074-.685 1.959-.6595.6516-1.457.4238-1.7998.018-.3467-.4042-.4957-.9238-1.2056-.8989-.7118.0292-1.15.0168-1.8513.164-.707.1487-1.38.1792-1.6423.1181-.266-.0625-.3623-.1528-.3623-.1528s.3272-.0445.685-.189c.273-.1083.329-.2084.329-.2084s-.6687.0973-1.4502.05c-.7802-.05-1.537-.3307-1.9959-.3348 0 0 .18-.2.5763-.2807.4005-.0792.4314-.2195.4314-.2195-.7732.1334-1.61-.414-1.6172-.471-.1181-1.0767.49-3.0371.49-3.0371s-.0385.011-.2549.168c-.217.1585-.4831.2182-.4831.2182.1208-.2667.2188-.6294.314-1.11.2462-1.2144 1.1955-3.2977 1.1955-3.2977s-.1653.0041-.3748.15c-.2101.1431-.437.1584-.437.1584s.0323-.1959.2105-.5919c.18-.3973.4614-.8711.8458-1.3351.387-.4655.6103-.867.6103-.867s-.0959-.0681-.3717 0c-.2695.0625-.5105.1848-.5105.1848s.1657-.3182.761-1.01c.5967-.692 1.421-1.3283 1.421-1.3283s-.1907.0903-.4269.075c-.1765-.0111-.3818.0306-.3818.0306s.1657-.1876.8872-.6766c.722-.485 1.5112-.874 1.5112-.874s-.161-.025-.3876.0014c-.2234.0279-.4547.0848-.4547.0848s.5766-.4502 1.9156-.8968c1.7277-.5704 2.3852-.4148 2.3852-.4148s-.5411.0598-1.1146.3168c-.5759.2542-.753.3918-.753.3918s.2458.1723.2615.2043c.0205.0326.0594.1-.043.1306-.107.0305-.5544.093-1.1307.3452-.5783.2564-.777.4467-.777.4467s.1987.0736.2394.0958c.0934.0487.0878.114-.0053.2057-.0417.0417-.2969.2529-.9409.7669-.6412.5224-.8676.8683-.8676.8683s.3143.0126.3834.014c.0629.0083.1174.0347.0424.1334-.0733.0944-.5811.6029-.9396 1.0947-.3657.4863-.6168.931-.6168.931s.631-.1626.5206.2445c-.0653.2431-.2567.728-.9086 1.9923-.6492 1.2678-.9528 2.0778-.9528 2.0778s.5901-.0514.6405-.0389c.0483.0125.1324.082.0962.1667-.0354.0848-.54.8087-.9426 2.209-.2668.9295-.328 1.5534-.328 1.5534zM36.972 27.7499s-.275-.0514-.432-.0625c-.157-.0098-.1692.289-.157.446.0781 1.0073-.0424 2.2785-.0654 2.3743-.0253.0945-.4623-.1695-.556-.2028-.0983-.0389-.1685.05-.183.1543-.1713 1.6005-.9351 3.3677-.9351 3.3677s-.1303-.2528-.1681-.3515c-.0382-.0944-.1345-.0944-.1952-.0361-.3227.3265-.6346 1.0393-.8257 1.713-.1945.6767-.6123 1.2172-.6123 1.2172-.0736-.0445-.0876-.4432-.1369-.5516-.0465-.1084-.1799-.0612-.2157.025-.0378.0834-.251.5558-.7443 1.5672-.494 1.0156-.8558 1.884-1.5634 1.9563-.487.05-.7277-1.3853-.7277-1.3853s-.1802.1209-.2726.3515c-.1011.2279-.1101.5044-.1101.5044-.5343-1.4922-.3067-2.6134-.2814-2.7468.0247-.1306-.0597-.1959-.1462-.1445-.0844.0459-.2893.2196-.2893.2196-.0493-.2196-.1543-.5308-.3251-.8337-.1706-.3-.6277-.1584-.9525-.1306-.2667.0194-.4108-.2626-.1948-.8906.217-.6307 1.0541-.9684 1.4067-1.1726.339-.1959.0597-.5071.1799-.8947.207-.66 1.1823-.9545 1.316-1.1824.1033-.182-.1128-.564.0324-1.074.1438-.5057 1.1317-1.1365 1.1317-1.1365-.098-.9252.0076-1.8867.4053-2.4327.3956-.5432 1.1438-.0626 1.3644 1.4227.3101 2.102-.5725 3.5178-.9959 4.4001-.421.8809-.5891.9184-.537.9656.05.0472.2647.0222.6252-.482.3602-.51 1.8996-2.5857 1.5846-4.9115-.3188-2.3258-1.5616-2.9024-2.5262-2.3967-.9625.5114-1.117 1.4255-.8885 3.1247 0 0-.552.4376-.7593.81-.2018.3738-.1035 1.0837-.2365 1.181-.131.0972-.5891.339-.9254.8114-.3369.4696-.2782 1.0711-.5171 1.1907-.2411.125-1.0018.4501-1.324 1.474-.3238 1.024.0023 1.8466.4851 1.7354.4804-.107 1.2053-.1585 1.1699.578-.0355.7336-.0928 1.556.017 2.1715 0 0 .189-.5696.348-.846 0 0 .51 2.5522 1.4752 3.5178 0 0-.0143-.353-.098-.7628-.084-.4057.0354-.6002.0354-.6002s.1088.421.6041.3932c.9278-.0417 1.9476-2.1702 1.9476-2.1702-.0442.5057.099.7113.099.7113.8794-.9656 1.4421-2.391 1.6696-3.1246.229-.7322.4935-1.085.4935-1.085s.1088.0735.0976.3486c-.0142.2765.0862.5544.0862.5544 1.0903-2.4259 1.357-4.2945 1.357-4.2945s.1282.0625.2015.3376c.073.2793.2783.5182.2783.5182.6373-2.1243.4887-3.3984.4887-3.3984s.109.032.3143.1903c.2039.157.3866.4475.3866.4475.059-1.0032-.1372-1.7243-.3157-2.4606-.1845-.735-.4127-1.5658-.4127-1.5658.3567.0083.6145.2765.6145.2765-.6218-2.4717-1.2713-3.4206-1.2713-3.4206s.1118.0138.2646.0333c.1557.025.3738.1375.3738.1375-.6405-1.4518-1.5602-2.3397-1.5602-2.3397.1476-.086.5439 0 .5439 0-1.0632-1.8915-3.323-2.5431-3.323-2.5431s1.3129.7641 1.9593 1.6602c.0612.0868-.109.1952-.2518.1952-.1434 0-.182.1195-.1209.2195.0611.0945.9698 1.0448 1.2803 1.7326.0625.1334-.4685.0139-.3584.2778.1062.264.9555 1.6173 1.1955 2.5926 0 0-.7343-.1654-.6499.0722.0838.2432.7256 1.42 1.329 3.6527zM22.9239 2.0794s-.7374-.0383-1.745.0917c-1.0056.1361-1.3932.2653-1.7868.307-.3907.043-.5161.0361-.5161.0361s.2365.2612.537.2737c.2636.009.4845.027.653.0903 0 0-.4436.0716-1.3328.373-1.1094.3821-1.1545.4509-2.2918.8093 0 0 .3085.1668.5794.1765.2508.0035.4165.1112.4165.1112s-.7961.1667-1.6874.5091c-.8948.3502-1.0882.5662-1.5464.583 0 0 .2293.1319.5496.1618.2132.018.4435.0645.4435.0645s-.357.1696-1.1761.6225c-.8253.455-1.0656.5676-1.5727.71 0 0 .3254.2.6342.2271.106.0098.2008.0146.3057.0257 0 0-.5075.3293-1.3238.7266-.8173.3905-.9326.478-1.2143.7184 0 0 .372.0306.5943.1035.0736.0298.1446.0527.2182.0799 0 0-.5308.257-1.2456.7474-.7565.5231-.9746.86-.9746.86s1.606-.9878 2.9825-1.3643c.1216-.0334.198-.157.064-.2974-.068-.0708-.3748-.3042-.3748-.3042s.0889-.0583.9937-.4905c.9049-.4334 1.354-.6335 1.4742-.6835.1146-.0556.0194-.1876-.0633-.232-.082-.048-.414-.2196-.414-.2196s.1845-.1.5981-.289c.7232-.3264 1.8045-.6932 1.8954-.7321.0883-.039.0935-.1292.0181-.198-.0795-.0646-.3501-.2702-.3501-.2702s.2772-.1668.8468-.3127c.5683-.1486 1.0768-.3195 1.298-.4126.187-.0743.2647-.1834.2164-.3272-.0326-.1063-.1702-.3001-.1702-.3001s.3092-.1403.7082-.2688c.5437-.1695.9355-.2223 1.4283-.3474.4964-.1299.5735-.1869.5805-.2869.003-.173-.1095-.3327-.1095-.3327s.0396-.0306.6464-.0855c.6082-.0535 1.1184-.066 1.5206-.0535.3995.0126.6267.0487.7955.0035.165-.0535.2306-.4175.2306-.4175s.4658-.0625 1.1466.1077c.6766.1757.9806.2772 1.135.3258.1581.0473.2658-.0014.3033-.15.0379-.1432.0931-.3015.0931-.3015s.4623-.0042 1.18.3097c.7648.346 1.1454.6398 1.289.7385.1086.0716.1937-.0257.2865-.1132.091-.0875.1726-.1994.1726-.1994s.057-.0202.2664.03c.2046.054.5492.2381.8785.4542.3254.2237.392.3918.656.4877.113.0382.2213-.1668.3005-.3516.0768-.1896.1688-.257.1688-.257s.1028.0139.4071.1848c.3087.1668.6179.3862.8273.603.023.025.0612.0062.0712-.0187.006-.0271.022-.2911-.1597-.5183-.3078-.3758-.8774-.8718-1.3744-1.2038-.4964-.3273-.7051-.4481-.7965-.551-.0417-.052-.0663-.1006-.0663-.1006s-.0296.1986.0983.4834c.1503.3237.1313.535.1313.535s-.5367-.41-1.2203-.7017c-.6433-.273-.8256-.4196-1.1115-.578-.3164-.1709-.3917-.2417-.3917-.2417s.0208.3348.1528.5446c.1354.2119.1354.3154.1354.3154s-.8436-.4154-1.9649-.6815c-1.124-.2543-1.77-.478-1.77-.478s.1268.3794.2813.5412c.1529.1626.2199.2613.2199.2613s-.9406-.1654-1.8763-.219c-.9347-.05-1.3147-.0152-1.4672-.0284a1.3211 1.3211 0 0 1-.1473-.0139s.0386.1834.3751.3446c.3342.164.4367.2543.4367.2543zM37.9338 5.543c.3255.5418.2004 1.5505-.0972 1.9937-.2994.4453-.7794.7274-1.0785 1.0685-.2977.3459-.562.9086-.687 1.3338-.1303.425-.3373.821-.6993.821-.3459 0-.662-.2952-.861-.7217-.1987-.43-.2449-1.0205-.9888-1.4143-.7416-.387-2.0907-.8525-2.0907-1.7389 0-.8877.861-1.1684 1.404-1.8749.5439-.7079 1.3327-1.183 2.0843-1.183.9879 0 2.4088.7113 3.0142 1.7158zM40.781 12.3592c-.091-.2334-.1987-.4265-.1987-.4265s.0632-.1369.2532-.2196c.296-.1264.5054-.1.5158-.314.0417-.9801-.6884-1.6324-.6884-1.6324.0972-.0563.264-.025.4918.018.222.0452.2425-.0535.2425-.0535-.3543-1.0503-1.4127-1.7228-1.4127-1.7228.155-.0903.3797-.0076.56.0452.1823.0555.337 0 .337 0-.1853-.6343-.6514-1.1045-1.279-1.4227-.626-.3168-1.0688-.3349-1.1248-.3349-.0524 0-.025.0709.0119.0883.059.0396.3438.1868.5776.4008.3109.2828.3283.3918.3283.3918s.0458.1521-.237.3682c-.28.2209-.5442.3834-.5775.437-.0404.0534-.0181.109.0423.1451.0636.0347.4178.2355.8333.578.4185.3466.5456.5898.446.6356-.1.0452-.4005.116-.3341.2674.0614.1585.3157.294.4956.4572.1823.1653.4102.3334.1914.9155-.1355.3627-.3363.453-.5145.453-.1844 0-.2844-.0174-.257.0458.0303.064.3186.617.1907.924-.1278.307-.2608.453-.652.407-.1642-.018-.2177-.0097-.1827.0543.0386.0666.3544.446.2543 1.0142-.0611.3487-.3591.3862-.584.2611-.133-.3264-.2719-.6515-.4257-.9766-.0528-.1056-.1779-.153-.2848-.1-.1025.0513-.1515.1764-.0973.282.0406.0777.0768.1583.116.2362.0983.2028.1886.4057.2751.603 0 .2153-.011.5112-.0594.7127-.0816.3515-.3185.4682-.5047.0694-.191-.4001-.3192-.9225-.3275-.9989-.0094-.0709-.2626.0486-.2803.1848-.0188.1375-.132.7808-.38.8766-.118.0473-.234-.2166-.234-.5335 0-.318.1618-.9225-.2367-1.224-.0885-.068-.1837-.0903-.3035-.0777-.116.004-.1744.0902-.1744.0902-.0323.9017-.2636 1.3978-.2636 1.3978s.3974-.3766.3974-.1585c0 .2168.0621.931.2872 1.2115.2282.2835.4526.3808.6557.3808.0734 0-.0395-.2362.2623-.5503.0803-.0902.1445-.157.1695-.0653.0275.0918.1824.5877.696.5725.4137-.0153.6465-.2973.7674-.6391.9493 2.8788.8624 5.6818-.1647 7.556 1.2675-1.8715 1.4457-4.9107.4106-8.0284.2702-.1237.7812-.0195 1.0097-.4738a.6692.6692 0 0 0 .0177-.0486c1.2848 2.6592 1.5822 5.3803.8517 7.3393.984-2.0257.725-5.0524-.7457-7.9868-.025-.2056-.106-.3292-.106-.3292s.3165-.2265.744-.253c.114-.0083.1866-.0485.2394-.1083 1.705 2.5176 2.3938 5.2448 1.9155 7.3338.734-2.207.017-5.29-1.9562-8.0757z"/><path class="st0" d="M28.318 5.2832c.1443.082.2144.191.0967.4043-.1234.214-.2738.339-.5746.3626-.5453.0417-1.0406-.3403-2.0924-.2973-.6033.0201-1.3017.1334-1.887.4175-.5846.2883-.708.3717-.7187.387-.0108.0208-.0163-.1.0709-.1862.2244-.2307 1.263-.9948 2.8547-1.263 1.2505-.2111 1.9695.0112 2.2505.1751z"/><path class="st0" d="M27.3834 6.228c.0295-.0278.0799-.0209.0938.032.0146.0486.0653.293-.0209.5862-.0858.289-.2042.5239-.5324.7822-.3158.2515-.9358.1765-1.1535-.2862-.2206-.4626-.0688-1.2574.4505-1.3956.2042-.0555.2643.1098.282.2355.0323.2307-.0931.3599-.007.5391.089.18.348.2279.5787.0139.2268-.2154.2268-.2835.2605-.3682.0334-.0834.0354-.1258.0483-.139zM35.1263 12.1439c-.0834-.0973-.1893-.096-.1966.0695-.0205.2708-.083.4737-.281.7669-.1966.282-.2612.0722-.413.1903-.4123.3113-.2355.9656-.2355 1.3088 0 .3376-.0865.6655-.2042.6154-.2508-.1041-.396-.5473-.4258-.6905-.064-.3125-.262-.2723-.2814-.1944-.0944.375-.43 1.2573-.6537 1.6686-.1236.2334-.2786-.0236-.3546-.2307.1785-.4904.3862-.985.6248-1.474.0417-.0876.0823-.1724.1268-.2599a.2352.2352 0 0 0-.1101-.3126c-.1115-.0528-.2511 0-.3081.1125a16.0515 16.0515 0 0 0-.9219 2.362c-.1719.3417-.3924.646-.6182.91-.1521.1723-.4158-.7891-.8222-.2792-.126.1625-.5341.7071-.6769.9002-.0208.0306-.0407.043-.0504.043.3436-.91.801-1.8269 1.3759-2.716.0503-.0751.0961-.153.1486-.2251.0621-.0987.0292-.2251-.0632-.2918-.1029-.0626-.2306-.032-.2935.0667-.5238.8072-.952 1.6422-1.283 2.4689-.1085-.4238-.4926-.0056-.6607.2153-.1866.246-.411.5433-.4735.414-.0087-.0208-.0316-.125-.0454-.2098-.0275-.1723-.1758-.2431-.3647-.2542a13.8702 13.8702 0 0 1 1.0562-1.57 7.0444 7.0444 0 0 1 .1483-.1917c.0674-.0806.048-.2015-.0347-.2682a.1904.1904 0 0 0-.2671.032c-.513.66-.9448 1.3435-1.3019 2.0298-.1573.032-.305.075-.4144.1098-.3508.1195-.7196.2473-.7196.2473.0118-.1445-.026-.3348-.1911-.478-.1633-.1486-.8572-.0138-1.1125-.043-.2608-.0333-.3001-.1056-.2608-.2487.11-.3876-.2304-.5683-.6242-.6544-.3943-.0875-.5707-.1862-.5707-.1862.1362-.3793-.4484-.6419-.7899-.8017-.3393-.1583-.744-.3931-.744-.3931l-.0316-.3057c-.034-.4015-.5123-.5363-.7992-.7697-.2855-.2306-.4067-.6822-.4067-.6822s0 .0598.0961.4793c.0921.4197.4714.6086.5812.9018.1094.289-.08.5224-.08.5224.2578.2028.5975.3778 1.0317.653.4366.275.1094.5223.1094.5223.258.2182.7482.4377 1.2094.5822.4627.146.082.5238.082.5238.4897.2501 1.1132.4348 1.48.4654.3665.025.0945.535.0945.535.3414.1166.5991.0596 1.4293-.1432a2.236 2.236 0 0 1 .2508-.0458c-.928 2.1417-1.1022 4.2771-.4644 5.843-.4849-1.6187-.1976-3.7347.8027-5.8263.222.0764.1977.2792.1449.3946-.08.1736-.0146.3903.1232.332.7086-.3043 1.1132-.9184 1.291-.9184.046 0 .077.0459.0974.0987-.7624 2.382-.7298 4.6759.0986 6.2903-.5967-1.4963-.5943-3.4609.0063-5.5137.4418-.2376.5967-.5793.8697-.8156.2706-.2306.3797-.1166.4214.0598.0524.2306-.1362.6252.0944.5307a2.2171 2.2171 0 0 0 .6832-.4584c-.4164 2.5654-.0587 4.9162 1.0153 6.4959-1.0129-1.8478-1.1882-4.5182-.4529-7.3351.0403-.0973.0652-.1709.0858-.2042.0774-.1445.1757.0374.1879.2597.0153.2265.0403.371.1851.2932.7145-.3682 1.1952-1.5227 1.2383-1.7631.018-.0987.084-.0347.1782.0514.332.303.2462.5655.3195.5572.2011-.0264.4127-.1557.6113-.4794.1935-.3251.1556-1.092.1556-1.3254 0-.2335.3964.1764.3964.1764s.257-.5057.3018-1.4366c.0354-.6932-.0521-.9934-.1497-1.1031z"/><path class="st0" d="M28.8801 17.8639c-.0205-.0528-.0514-.0987-.0973-.0987-.0174 0-.0465.0278-.0684.0403.0483.0486.093.1.141.1487.0087-.0306.015-.0598.0247-.0903zM24.5672 16.737c-.0393.1432 0 .2155.2608.2488.157.0167.4724-.0209.735-.0237-.3252-.1833-.659-.3542-1.0056-.4987.0303.0792.0403.1653.0098.2737zM26.3299 17.4388a8.9858 8.9858 0 0 0-.225-.1515c.0235.0764.0322.1542.0267.2195 0 0 .082-.0292.1983-.068z"/><path class="st0" d="M28.492 19.4526c.0856-.4911.205-.9913.3634-1.4984-.048-.0487-.0927-.1-.141-.1487-.1772.0875-.504.4724-1.0132.7572.2824.278.5422.5801.7909.8899zM29.2882 18.4265a1.5109 1.5109 0 0 1-.3032.214c-.1112.3828-.181.7565-.2526 1.1275 1.1939 1.62 1.9222 3.6054 1.9636 5.7617.0576-.039.1094-.0806.1733-.114.3425-.1806.7197-.214 1.0799-.0917-.0153-.4335-.0619-.8628-.124-1.2851-.4745-.8434-.7704-1.8673-.8813-2.9996a11.3429 11.3429 0 0 0-1.6557-2.6128zM22.4508 15.8438c.0184-.0932-.017-.2154-.221-.3433-.434-.275-.7738-.4501-1.0315-.653 0 0 .1274-.1736.1-.4028-.213-.0125-.4234-.032-.6391-.032-2.4244 0-4.6655.7697-6.5074 2.0701.6276.2487.5894.81.4655 1.2268 1.6832-1.2698 3.7717-2.034 6.0419-2.034.6124 0 1.2094.064 1.7916.1682zM10.7555 27.3303c-.4213.3529-.8795.382-1.2396.2459.887 5.363 5.531 9.4546 11.1433 9.4546 2.0442 0 3.956-.5502 5.611-1.4977-.1873-.282-.2477-.8156-.074-1.431-1.588 1.0503-3.4894 1.6644-5.537 1.6644-4.9968 0-9.1333-3.6568-9.9037-8.4362zM8.578 25.752c-.49-.0973-1.0062-.0653-1.3497-.0042-.8097.1403-1.2474.221-1.2474.221s.1365-.2168.2008-.367c.0629-.1555-.0879-.1916-.1715-.1777-.0834.0167-.6846.0222-1.2032.1097-.5158.0848-1.0945-.0833-1.0945-.0833.1177-.1.191-.2696.2063-.3585.0094-.0472-.0132-.0972-.116-.1584-.1035-.0583-.3928-.1944-.9577-.0791-1.1847.2445-1.565-.2293-1.565-.2293s.0611-.6239.3279-1.5533c.4025-1.4004.9072-2.1243.9426-2.2091.0362-.0847-.0479-.1542-.0962-.1667-.0504-.0125-.6405.0389-.6405.0389s.3036-.81.9528-2.0778c.652-1.2643.8433-1.7492.9086-1.9923.1105-.4071-.5206-.2446-.5206-.2446s.251-.4446.6168-.9309c.3585-.4918.8663-1.0003.9396-1.0947.075-.0987.0205-.125-.0424-.1334-.0691-.0014-.3834-.014-.3834-.014s.2264-.3459.8676-.8683c.644-.514.8992-.7252.941-.767.093-.0916.0986-.157.0052-.2056-.0407-.0222-.2394-.0958-.2394-.0958s.1987-.1903.777-.4467c.5763-.2521 1.0237-.3147 1.1307-.3452.1024-.0306.0635-.098.043-.1306-.0157-.032-.2616-.2043-.2616-.2043s.1772-.1376.753-.3918c.5736-.257 1.1147-.3168 1.1147-.3168s-.6575-.1556-2.3852.4148c-1.339.4466-1.9156.8968-1.9156.8968s.2313-.057.4547-.0848c.2265-.0263.3876-.0013.3876-.0013s-.7891.389-1.5112.8739c-.7215.489-.8872.6766-.8872.6766s.2053-.0417.3818-.0306c.2362.0153.4269-.075.4269-.075s-.8243.6363-1.421 1.3282c-.5953.6919-.761 1.01-.761 1.01s.241-.1222.5105-.1847c.2758-.0681.3717 0 .3717 0s-.2234.4015-.6103.867c-.3844.464-.6658.9378-.8458 1.3351-.1782.396-.2105.592-.2105.592s.2269-.0154.437-.1585c.2095-.1459.3748-.15.3748-.15s-.9493 2.0833-1.1955 3.2976c-.0952.4807-.1932.8434-.314 1.1101 0 0 .266-.0597.4831-.2181.2164-.157.255-.1681.255-.1681S.834 23.7666.9522 24.8433c.0073.057.844.6044 1.6171.471 0 0-.0308.1403-.4313.2195-.3963.0806-.5763.2807-.5763.2807.459.0041 1.2157.2848 1.9959.3348.7815.0473 1.4501-.05 1.4501-.05s-.0559.1-.3289.2084c-.3578.1445-.685.189-.685.189s.0962.0903.3623.1528c.2622.0611.9354.0306 1.6423-.118.7012-.1473 1.1395-.1349 1.8513-.164.7099-.025.859.4946 1.2056.8989.1118.1292.2744.239.4606.3098a10.9483 10.9483 0 0 1-.122-1.0184c-.3505-.2876-.4387-.7252-.8159-.8058zM32.069 24.453c-.1028-.1863-.1914-.3877-.2765-.592.0098.0598.023.1195.0327.1779.0781.1417.1549.2848.2438.414zM27.3896 18.2835a.5796.5796 0 0 1-.0211.068c-.08.1737-.0146.3905.1233.3321.0781-.0348.1382-.0806.2094-.121-.1-.0971-.2074-.186-.3116-.2791z"/><path class="st0" d="M28.9787 24.1542c-.486-1.2171-.5526-2.751-.2463-4.3862a9.225 9.225 0 0 0-.2403-.3154c-.3133 1.7922-.1553 3.4512.4866 4.7016zM25.9405 17.0289c-.0628-.057-.2125-.0668-.3775-.0668.1847.1043.3657.2112.5418.3252-.0264-.0903-.0743-.1806-.1643-.2584zM18.877 25.374c-.1216 0-.2375.025-.3435.064-.3945.1403-.6812.514-.6812.9614 0 .5655.4627 1.024 1.0247 1.024.2303 0 .438-.0806.6089-.207a1.0054 1.0054 0 0 0 .4134-.817c0-.5682-.4586-1.0254-1.0223-1.0254z"/><path class="st0" d="M24.8683 28.5376l-.1779-.157-.0618-.2306-.0934-.0917.0222-.05-.0469-.0264-.0236-.0778.0024-.0528-.7842-.7753-.1754-.164-.9744-.9322-.5095-.4599-.4314-.3903-.5502-.4808-.1403-.1306-.1869-.1625-.2223-.1904-.1055-.0875V21.213H17.233l-.027.1-.0163.0487.0162.0402.0525.0487.0167.0403.0212.0889.0452.075h-.0271l.0364.082-.0222.0514-.0285.118v.0807l-.025-.0098-.0167.0432.0417.1166-.1754.3933-.0431.1027v.057l.0282.039.0149.0402-.015.0542.0097.0222.1341.1265.0609.0375.0194.068.0427.039.0608.0889.0236.0417.066.061v.053l.018.05.0164.1319-.0222.057-.0188.0625v.0861l.0188.064.0417.1041.0413.0904-.0288.1028.0155.0333.0414.0417.0538.057.0688.0666.0118.025.0414.0153.035.0528.0664.1056.0476.0305.0944.0626.0414.1084h.026l.0428.0333.0118.0264c.0308-.014.0555-.0348.0871-.0459.1862-.068.3877-.111.5995-.111.9833 0 1.785.7974 1.785 1.788 0 .5822-.275 1.0893-.7033 1.4116l-.0115.057v.0458l-.0076.0223.036.0666-.0142.0459.0143.0708-.0285.1126.0063.05.0896.0195.049.075.3657.0083.0476.0264.1698.0195.0608-.0195.1105.0306.0805.0861.0685.025.0549.1306.048.0417.1218.032.0146.011.0868.0154.0285.0194.1848-.0194.0545.0319.0678.1459v.0278l-.0226.0486.0969.0486.0264-.043.0469-.0167.0628.0166.1136.1015.0414.0361.043.0153.1133.1194.074.046.109.1167.1449.2736.0183.1015-.0183.061.035.0834-.0215.0209v.0389l.0118.0125.0292-.032.0104-.0041.0577.043.0066.0487-.0556-.0486h-.0132l.0132.0236.0292.0375v.0778l.7683-.0834 1.0385-.0986.1116-.0014.0284-.0292.0184-.0694.0372-.039v-.118l-.0438-.046-.0962-.0068-.0312-.0264-.009-.0473.0131-.1306-.036-.0389.0166-.05-.0049-.0459.0271-.0236.065-.0667-.015-.025.0441-.0125.0309-.0847-.0132-.064.0202-.0291-.018-.1862.066-.0639-.004-.0222.0275-.0611.18-.1543.0448-.018-.0087-.0362z"/></g></svg>