<?xml version="1.0" encoding="utf-8"?>
<!-- Generator: Adobe Illustrator 21.1.0, SVG Export Plug-In . SVG Version: 6.00 Build 0)  -->
<svg version="1.1" id="Layer_1" xmlns="http://www.w3.org/2000/svg" xmlns:xlink="http://www.w3.org/1999/xlink" x="0px" y="0px"
	 viewBox="0 0 145.5 42.166668" style="enable-background:new 0 0 145.5 42.166668;" xml:space="preserve">
<style type="text/css">
	.st0{fill:#002A4E;}
</style>
<g>
	<g>
		<path class="st0" d="M50.833736,12.624957c-0.170582-0.520355-0.537357-0.887129-1.117393-0.887129
			c-0.784977,0-1.262936,0.733547-1.262936,2.175388c-0.017002,1.442127,0.409882,2.175746,1.29694,2.175746
			c0.52903,0,0.853054-0.187585,1.202824-0.912808l1.092072,0.290373c-0.366776,1.066319-1.168823,1.612355-2.294895,1.612355
			c-1.569958,0-2.474087-1.151753-2.474087-3.165666c0-2.013556,0.904129-3.165308,2.474087-3.165308
			c1.177502,0,1.860046,0.529318,2.150063,1.621387L50.833736,12.624957z"/>
		<path class="st0" d="M55.239002,16.993448l-0.068077-0.384201c-0.42688,0.290373-0.827656,0.469635-1.38237,0.469635
			c-0.801697,0-1.202827-0.571714-1.202827-1.177505c0-1.006565,0.818981-1.535954,2.542519-1.740183v-0.375809
			c0-0.341448-0.273018-0.528961-0.648468-0.528961c-0.494961,0-0.767979,0.264624-0.972565,0.546318l-0.682541-0.520638
			c0.273018-0.469637,1.006565-0.828087,1.655106-0.81073c1.194504,0.025751,1.706108,0.460602,1.706108,1.791969v2.090312
			c0,0.221586,0.017357,0.443884,0.085434,0.639791H55.239002z M55.128246,14.869134
			c-0.708221,0.136152-1.484524,0.28134-1.484524,0.904413c0,0.332772,0.213264,0.520356,0.511963,0.520356
			c0.332771,0,0.750622-0.28134,0.972561-0.469636V14.869134z"/>
		<path class="st0" d="M57.2887,16.993448v-6.160106h1.057991v6.160106H57.2887z"/>
		<path class="st0" d="M59.525188,11.737828v-0.98992h1.057999v0.98992H59.525188z M60.583187,16.993448h-1.057999V12.55688
			h1.057999V16.993448z"/>
		<path class="st0" d="M63.153522,13.409934v3.583514h-1.057999v-3.583514h-0.614113V12.55688H62.0872v-0.546034
			c0-0.955917,0.38385-1.262938,1.253906-1.262938h0.699543v0.853056h-0.29002c-0.443604,0-0.597107,0.136864-0.597107,0.477957
			v0.477959h0.895809v0.853054H63.153522z"/>
		<path class="st0" d="M66.380005,12.471375c1.202827,0,1.928055,0.895451,1.928055,2.30393
			c0,1.407413-0.725227,2.303576-1.928055,2.303576c-1.203178,0-1.928123-0.896164-1.928123-2.303576
			C64.451881,13.366826,65.176826,12.471375,66.380005,12.471375z M66.380005,13.324502
			c-0.588783,0-0.870483,0.460884-0.870483,1.450804s0.2817,1.450521,0.870483,1.450521
			c0.588364,0,0.870056-0.460601,0.870056-1.450521S66.968369,13.324502,66.380005,13.324502z"/>
		<path class="st0" d="M69.086777,16.993448V12.55688h0.972916v0.759228h0.017006
			c0.256012-0.529318,0.614113-0.827305,1.245575-0.844732v1.118105c-0.051353-0.008324-0.110756-0.008324-0.187508-0.008324
			c-0.529037,0-0.98999,0.605078-0.98999,0.71619v2.696101H69.086777z"/>
		<path class="st0" d="M71.99749,16.993448V12.55688h0.972565v0.477886c0.392525-0.273657,0.844734-0.563391,1.365089-0.563391
			c0.887413,0,1.313934,0.580109,1.313934,1.484879v3.037194h-1.057991v-2.883613c0-0.597822-0.187515-0.785334-0.545967-0.785334
			c-0.460602,0-0.810371,0.264978-0.989632,0.469919v3.199027H71.99749z"/>
		<path class="st0" d="M76.777641,11.737828v-0.98992h1.057999v0.98992H76.777641z M77.83564,16.993448h-1.057999V12.55688h1.057999
			V16.993448z"/>
		<path class="st0" d="M81.275673,16.993448l-0.068787-0.384201c-0.426529,0.290373-0.827377,0.469635-1.382019,0.469635
			c-0.801697,0-1.202896-0.571714-1.202896-1.177505c0-1.006565,0.819046-1.535954,2.542587-1.740183v-0.375809
			c0-0.341448-0.273018-0.528961-0.648544-0.528961c-0.494957,0-0.767975,0.264624-0.972488,0.546318l-0.682541-0.520638
			c0.273018-0.469637,1.006561-0.828087,1.655029-0.81073c1.194504,0.025751,1.706543,0.460602,1.706543,1.791969v2.090312
			c0,0.221586,0.01664,0.443884,0.085426,0.639791H81.275673z M81.164558,14.869134
			c-0.708221,0.136152-1.484596,0.28134-1.484596,0.904413c0,0.332772,0.213333,0.520356,0.512032,0.520356
			c0.332703,0,0.750908-0.28134,0.972565-0.469636V14.869134z"/>
		<path class="st0" d="M88.676094,12.471375c-0.179192-0.477888-0.545967-0.802336-1.100327-0.802336
			c-0.512032,0-0.878799,0.204941-0.878799,0.682899c0,1.057995,3.173271,0.836409,3.173271,2.832537
			c0,1.262938-0.793297,1.894406-2.158318,1.894406c-1.006638,0-1.953445-0.563393-2.303574-1.458844l0.972565-0.426527
			c0.281342,0.580036,0.648827,0.963529,1.339333,0.963529c0.589073,0,1.041283-0.221587,1.041283-0.819053
			c0-1.210794-3.173988-0.972563-3.173988-2.866611c0-1.100321,0.921204-1.723467,1.988228-1.723467
			c0.989212,0,1.808189,0.494604,2.175034,1.390766L88.676094,12.471375z"/>
		<path class="st0" d="M90.913651,12.55688v-1.467876h1.057999v1.467876h0.869774v0.853054h-0.869774v2.508801
			c0,0.238305,0.118797,0.307092,0.383492,0.307092c0.162544,0,0.332771-0.05143,0.486282-0.085432v0.870411
			c-0.289665,0.034002-0.546036,0.068077-0.835701,0.068077c-0.784981,0-1.092072-0.392525-1.092072-1.023993v-2.644956h-0.614746
			V12.55688H90.913651z"/>
		<path class="st0" d="M96.009148,16.993448l-0.068787-0.384201c-0.426529,0.290373-0.827309,0.469635-1.38166,0.469635
			c-0.802406,0-1.203186-0.571714-1.203186-1.177505c0-1.006565,0.818977-1.535954,2.542519-1.740183v-0.375809
			c0-0.341448-0.273018-0.528961-0.648827-0.528961c-0.494606,0-0.767616,0.264624-0.972557,0.546318l-0.68219-0.520638
			c0.273018-0.469637,1.006561-0.828087,1.654747-0.81073c1.194862,0.025751,1.706825,0.460602,1.706825,1.791969v2.090312
			c0,0.221586,0.01664,0.443884,0.085434,0.639791H96.009148z M95.898033,14.869134
			c-0.70787,0.136152-1.48452,0.28134-1.48452,0.904413c0,0.332772,0.213264,0.520356,0.511955,0.520356
			c0.332771,0,0.750977-0.28134,0.972565-0.469636V14.869134z"/>
		<path class="st0" d="M98.177994,12.55688v-1.467876h1.057281v1.467876h0.870415v0.853054h-0.870415v2.508801
			c0,0.238305,0.119438,0.307092,0.384132,0.307092c0.161903,0,0.332771-0.05143,0.486282-0.085432v0.870411
			c-0.289665,0.034002-0.546036,0.068077-0.835701,0.068077c-0.784981,0-1.091995-0.392525-1.091995-1.023993v-2.644956h-0.614822
			V12.55688H98.177994z"/>
		<path class="st0" d="M101.592346,14.945533c0.01664,0.921843,0.426521,1.280293,0.921127,1.280293
			s0.725227-0.222298,0.989922-0.529389l0.767624,0.47796c-0.409882,0.631468-1.006638,0.904486-1.859695,0.904486
			c-1.151749,0-1.876976-0.896164-1.876976-2.303576c0-1.40848,0.725227-2.30393,1.927696-2.30393
			c1.160789-0.008324,1.808975,0.972563,1.808975,2.039236v0.434921H101.592346z M103.298454,14.229272
			c-0.017357-0.61404-0.341095-0.972847-0.853058-0.972847c-0.512032,0-0.836411,0.358807-0.85305,0.972847H103.298454z"/>
		<path class="st0" d="M111.228233,10.833343h1.176788v3.856529c0,1.799939-1.108711,2.38901-2.362587,2.38901
			c-1.254608,0-2.363327-0.589071-2.363327-2.38901v-3.856529h1.176788v3.907961c0,0.998241,0.392525,1.347659,1.186539,1.347659
			c0.793304,0,1.185799-0.349418,1.185799-1.347659V10.833343z"/>
		<path class="st0" d="M113.594315,16.993448V12.55688h0.972549v0.477886c0.392494-0.273657,0.844734-0.563391,1.365051-0.563391
			c0.887108,0,1.313644,0.580109,1.313644,1.484879v3.037194h-1.057312v-2.883613c0-0.597822-0.188255-0.785334-0.546021-0.785334
			c-0.461258,0-0.810684,0.264978-0.989914,0.469919v3.199027H113.594315z"/>
		<path class="st0" d="M118.375107,11.737828v-0.98992h1.058006v0.98992H118.375107z M119.433113,16.993448h-1.058006V12.55688
			h1.058006V16.993448z"/>
		<path class="st0" d="M120.308403,12.55688h1.057999l0.733582,3.003405h0.016678l0.750946-3.003405h1.057999l-1.271255,4.436568
			h-1.108719L120.308403,12.55688z"/>
		<path class="st0" d="M125.41642,14.945533c0.016647,0.921843,0.426529,1.280293,0.921127,1.280293
			s0.72522-0.222298,0.989914-0.529389l0.767616,0.47796c-0.409874,0.631468-1.006554,0.904486-1.859688,0.904486
			c-1.151749,0-1.876999-0.896164-1.876999-2.303576c0-1.40848,0.72525-2.30393,1.927719-2.30393
			c1.160858-0.008324,1.808968,0.972563,1.808968,2.039236v0.434921H125.41642z M127.12252,14.229272
			c-0.017349-0.61404-0.341095-0.972847-0.853058-0.972847c-0.511948,0-0.836395,0.358807-0.853043,0.972847H127.12252z"/>
		<path class="st0" d="M129.102356,16.993448V12.55688h0.972565v0.759228h0.016647
			c0.256363-0.529318,0.614822-0.827305,1.245575-0.844732v1.118105c-0.05072-0.008324-0.110474-0.008324-0.187592-0.008324
			c-0.528595,0-0.989197,0.605078-0.989197,0.71619v2.696101H129.102356z"/>
		<path class="st0" d="M134.273529,13.725633c-0.213257-0.230265-0.494598-0.469208-0.827301-0.469208
			c-0.409882,0-0.597458,0.170155-0.597458,0.435205c0,0.759298,2.21814,0.435562,2.21814,2.056238
			c0,0.921132-0.699539,1.331014-1.629074,1.331014c-0.708572,0-1.28862-0.316055-1.681061-0.896164l0.708496-0.528607
			c0.247345,0.341095,0.580109,0.639792,1.032318,0.639792c0.375168,0,0.630753-0.204941,0.630753-0.503638
			c0-0.759298-2.218063-0.486282-2.218063-2.030558c0-0.82773,0.699539-1.288332,1.46788-1.288332
			c0.588364,0,1.176712,0.221657,1.560913,0.673864L134.273529,13.725633z"/>
		<path class="st0" d="M135.939377,11.737828v-0.98992h1.057999v0.98992H135.939377z M136.997375,16.993448h-1.057999V12.55688
			h1.057999V16.993448z"/>
		<path class="st0" d="M138.49585,12.55688v-1.467876h1.057281v1.467876h0.870407v0.853054h-0.870407v2.508801
			c0,0.238305,0.119507,0.307092,0.384201,0.307092c0.161835,0,0.332703-0.05143,0.486206-0.085432v0.870411
			c-0.289658,0.034002-0.545959,0.068077-0.835693,0.068077c-0.784988,0-1.091995-0.392525-1.091995-1.023993v-2.644956h-0.614822
			V12.55688H138.49585z"/>
		<path class="st0" d="M141.078629,17.71035c0.161896,0.034002,0.289734,0.034002,0.443237,0.034002
			c0.367493,0,0.571716-0.102791,0.700256-0.350056c0.102081-0.213264,0.170151-0.341095,0.170151-0.520355
			c0-0.161833-0.085419-0.349417-0.136139-0.528679l-1.185837-3.788383h1.066391l0.733551,2.730387h0.016647l0.759293-2.730387
			h1.057999l-1.399094,4.444892c-0.468918,1.271259-0.844727,1.612352-1.714432,1.612352
			c-0.256363,0-0.384201-0.016645-0.512024-0.034075V17.71035z"/>
		<path class="st0" d="M47.574245,31.219801v-9.756779h2.621761l1.878399,6.810638h0.027103l1.891987-6.810638h2.648796v9.756779
			H55.02055V23.5443h-0.027107l-2.189259,7.675501h-1.418865L49.223091,23.5443h-0.027103v7.675501H47.574245z"/>
		<path class="st0" d="M62.130238,31.355242c-2.662308,0-4.094765-1.824905-4.094765-5.014187s1.432457-5.013474,4.094765-5.013474
			c2.662029,0,4.094479,1.824194,4.094479,5.013474S64.792267,31.355242,62.130238,31.355242z M62.130238,22.895473
			c-1.527206,0-2.229881,1.162138-2.229881,3.445581c-0.0271,2.284084,0.689087,3.446293,2.229881,3.446293
			c1.526917,0,2.229595-1.162209,2.229595-3.446293C64.359833,24.057611,63.657154,22.895473,62.130238,22.895473z"/>
		<path class="st0" d="M67.888145,31.219801v-9.756779h1.946121l3.837753,6.648804h0.0271v-6.648804h1.756897v9.756779h-1.797516
			l-3.98642-6.946079h-0.027107v6.946079H67.888145z"/>
		<path class="st0" d="M83.835548,21.44915v1.567894h-2.553619v8.202757h-1.865234v-8.202757h-2.55397V21.44915H83.835548z"/>
		<path class="st0" d="M85.255478,31.219801v-9.756779h6.459869v1.567183H87.12072v2.324419h3.337952v1.56789H87.12072v2.729393
			h4.743301v1.567894H85.255478z"/>
		<path class="st0" d="M93.365189,31.219801v-9.756779H97.2575c2.216011,0,3.107971,1.283779,3.121918,2.891933
			c0.013161,1.202473-0.594696,2.175747-1.783936,2.513355l2.148643,4.35149H98.67601l-1.837425-3.972908h-1.608154v3.972908
			H93.365189z M95.230431,25.733206h1.378242c1.459557,0,1.905502-0.459179,1.905502-1.37825
			c0-0.919067-0.554359-1.378244-1.581055-1.378244h-1.70269V25.733206z"/>
		<path class="st0" d="M102.32589,31.219801v-9.756779h6.459869v1.567183h-4.594627v2.324419h3.337952v1.56789h-3.337952v2.729393
			h4.743233v1.567894H102.32589z"/>
		<path class="st0" d="M113.51651,25.32752l1.675568-3.864498h1.945801l-2.68911,5.865177v3.891602h-1.864517v-3.891602
			l-2.689133-5.865177h1.945816L113.51651,25.32752z"/>
		<path class="st0" d="M121.504646,21.463022h3.622055c1.945816,0,3.202477,0.648825,3.310829,2.391785
			c0,1.013535-0.418854,1.797161-1.48658,2.216007c1.270531,0.514091,1.702614,1.094841,1.702614,2.581429
			c0,1.51376-1.067665,2.567558-3.553947,2.567558h-3.594971V21.463022z M123.369865,25.354624h1.864517
			c0.891968,0,1.337982-0.513386,1.337982-1.189312c0-0.675217-0.446014-1.188601-1.337982-1.188601h-1.864517V25.354624z
			 M123.369865,29.70611h1.864517c1.081604,0,1.554733-0.486279,1.554733-1.418579c0-0.932938-0.473129-1.41922-1.554733-1.41922
			h-1.864517V29.70611z"/>
		<path class="st0" d="M132.411148,21.44915h2.324417l2.770355,9.770651h-1.851364l-0.540421-2.108379h-3.08165l-0.58075,2.108379
			h-1.851288L132.411148,21.44915z M132.438248,27.571341h2.270203l-1.094833-4.24379h-0.026398L132.438248,27.571341z"/>
		<path class="st0" d="M140.736893,25.32752l1.675522-3.864498h1.945831l-2.689133,5.865177v3.891602h-1.864517v-3.891602
			l-2.689056-5.865177h1.945755L140.736893,25.32752z"/>
	</g>
	<g>
		<path class="st0" d="M20.619654,17.246975c-4.708945,0-8.526208,3.817263-8.526208,8.52585
			c0,4.711292,3.817263,8.529264,8.526208,8.529264c4.710579,0,8.527489-3.817972,8.527489-8.529264
			C29.147142,21.064238,25.330233,17.246975,20.619654,17.246975z M20.658493,32.647343
			c-3.820393,0-6.915135-3.094103-6.915135-6.91485c0-3.815128,3.094743-6.912716,6.915135-6.912716
			c3.817617,0,6.913855,3.097588,6.913855,6.912716C27.572348,29.55324,24.47611,32.647343,20.658493,32.647343z"/>
		<path class="st0" d="M1.280024,24.6252c0,0,0.380361,0.473763,1.565119,0.229271
			c0.564815-0.115311,0.854122,0.02084,0.957623,0.07917c0.102862,0.061108,0.125412,0.111115,0.116022,0.158348
			c-0.015294,0.088921-0.088564,0.258434-0.206292,0.358524c0,0,0.578686,0.168091,1.094487,0.083298
			c0.518577-0.087498,1.119813-0.093044,1.203183-0.10976c0.083655-0.013874,0.234391,0.022263,0.171578,0.177837
			c-0.064306,0.150097-0.200815,0.366844-0.200815,0.366844s0.437696-0.080597,1.247358-0.220947
			c0.343512-0.061104,0.85967-0.093044,1.349721,0.0042c0.486635,0.102787,0.486635,0.803043,1.194147,1.008625
			c0.705805,0.213978,0.682899-1.494907,0.695419-1.961769c0.014227-0.461243,0.162899-0.687737,0.532448-0.972561
			c0.565454-0.440399,0.42795-1.119812,0.369904-1.596348c-0.059753-0.477959,0.872902-0.948946,1.126072-1.507429
			c0.248049-0.566877,0.043108-1.149048-0.06459-1.378246c-0.109762-0.229269,0.069855-0.413368,0.200459-0.546747
			c0.304958-0.302893,0.781137-1.140654,0.573778-1.440773c-0.203875-0.300121-1.353563,0.02639-2.552263,1.11846
			c-1.202473,1.091358-2.066694,2.366743-2.393847,2.954464c-0.039621,0.066725-0.087568-0.079174-0.010101-0.275082
			c0.077467-0.201454,0.746067-1.864527,2.084408-3.180958c1.340403-1.317141,2.621052-1.797802,3.60848-1.56583
			c0.987856,0.227917,0.778078,1.044836,0.61027,1.497755c-0.165674,0.446018-0.676212,0.765558-0.783199,1.288616
			c-0.106987,0.522417,0.045811,0.915583,0.091694,1.408834c0.045454,0.496027-0.094824,0.829437-0.584591,1.350431
			c-0.200743,0.213976-0.629761,0.687737-0.605076,0.923977c0.007326,0.05691,0.156284,0.334835-0.139284,1.158722
			c-0.295923,0.822468-0.963528,1.022572-0.991982,1.253193c-0.027458,0.237591-0.024685,1.307396-0.684961,1.958996
			c-0.659639,0.6516-1.457066,0.423752-1.799938,0.018066c-0.346642-0.404331-0.49567-0.923904-1.2056-0.898937
			c-0.711708,0.029167-1.150043,0.01672-1.851295,0.163967c-0.706872,0.148674-1.380025,0.179192-1.64223,0.118088
			c-0.266117-0.062531-0.362293-0.152802-0.362293-0.152802s0.327152-0.04446,0.684963-0.189007
			c0.273017-0.108337,0.32893-0.208355,0.32893-0.208355s-0.668673,0.097244-1.450165,0.050011
			c-0.780141-0.050011-1.53695-0.330711-1.995844-0.334835c0,0,0.179973-0.200104,0.576267-0.280701
			c0.400492-0.079174,0.431365-0.219524,0.431365-0.219524c-0.77317,0.133381-1.609863-0.414005-1.61719-0.470985
			c-0.118085-1.076704,0.490122-3.037123,0.490122-3.037123s-0.038555,0.011097-0.254949,0.168093
			c-0.217106,0.158419-0.483152,0.218172-0.483152,0.218172c0.120859-0.266758,0.218813-0.629406,0.313992-1.110138
			c0.24627-1.214279,1.1955-3.297619,1.1955-3.297619s-0.165318,0.004126-0.37474,0.150024
			c-0.210135,0.143124-0.436985,0.158417-0.436985,0.158417s0.032296-0.195906,0.21049-0.591915
			c0.179972-0.397291,0.461312-0.871124,0.845798-1.33514c0.386905-0.465438,0.61027-0.866998,0.61027-0.866998
			s-0.09589-0.068077-0.371682,0c-0.269531,0.062529-0.510538,0.184809-0.510538,0.184809s0.165674-0.318188,0.761006-1.01005
			c0.596754-0.691933,1.421-1.328238,1.421-1.328238s-0.190714,0.090342-0.426883,0.075047
			c-0.176487-0.011168-0.381783,0.030518-0.381783,0.030518s0.165674-0.187513,0.887129-0.676567
			c0.722095-0.48493,1.511271-0.873898,1.511271-0.873898s-0.161121-0.02504-0.387616,0.00135
			c-0.223365,0.027815-0.454698,0.084723-0.454698,0.084723s0.576623-0.450144,1.915604-0.896803
			c1.727663-0.570362,2.385166-0.414719,2.385166-0.414719s-0.541126,0.059753-1.114618,0.316765
			c-0.57584,0.254238-0.753038,0.391813-0.753038,0.391813s0.245914,0.172291,0.261564,0.204229
			c0.020487,0.032652,0.059399,0.100018-0.043037,0.130606c-0.106987,0.030588-0.554358,0.093115-1.130624,0.345219
			c-0.57833,0.256372-0.777012,0.44673-0.777012,0.44673s0.198682,0.073626,0.23937,0.095819
			c0.093401,0.048656,0.087852,0.113958-0.005263,0.205652c-0.041685,0.041685-0.296919,0.252886-0.940907,0.766911
			c-0.641213,0.522417-0.867637,0.868349-0.867637,0.868349s0.314276,0.01252,0.383419,0.013943
			c0.062883,0.008322,0.117444,0.034714,0.042397,0.133377c-0.073269,0.094469-0.581104,0.602943-0.939555,1.094774
			c-0.365778,0.48628-0.616885,0.930877-0.616885,0.930877s0.631112-0.162544,0.520639,0.244564
			c-0.065303,0.243139-0.256657,0.727999-0.908611,1.992287c-0.649181,1.267843-0.952786,2.077791-0.952786,2.077791
			s0.590138-0.051361,0.640502-0.038841c0.048301,0.012449,0.132383,0.081949,0.096246,0.166672
			C2.51522,20.947577,2.010515,21.67145,1.60796,23.07189C1.3412,24.001345,1.280024,24.6252,1.280024,24.6252z"/>
		<path class="st0" d="M36.972023,27.749891c0,0-0.275078-0.051434-0.432076-0.062531
			c-0.156994-0.009743-0.169159,0.288952-0.156994,0.44595c0.078178,1.007347-0.042328,2.278606-0.065304,2.374424
			c-0.025322,0.094467-0.462307-0.169514-0.556065-0.202805c-0.098309-0.038914-0.168449,0.050007-0.183029,0.154221
			c-0.171295,1.600542-0.935074,3.367758-0.935074,3.367758s-0.130249-0.252815-0.168095-0.351482
			c-0.0382-0.094467-0.134445-0.094467-0.195194-0.036137c-0.32267,0.326511-0.634598,1.039288-0.825668,1.713081
			c-0.194485,0.67664-0.612331,1.217125-0.612331,1.217125c-0.073627-0.044456-0.08757-0.443241-0.136864-0.551582
			c-0.046524-0.10841-0.179901-0.061176-0.215683,0.024967c-0.037846,0.083374-0.25111,0.555782-0.74436,1.567257
			c-0.493893,1.015598-0.855827,1.883945-1.563412,1.956219c-0.486919,0.050007-0.727642-1.385216-0.727642-1.385216
			s-0.180256,0.120857-0.272663,0.351479c-0.101082,0.227844-0.110115,0.504349-0.110115,0.504349
			c-0.534229-1.492134-0.306667-2.613369-0.281342-2.746746c0.024685-0.130608-0.059753-0.195908-0.146255-0.144478
			c-0.084366,0.045811-0.289307,0.219524-0.289307,0.219524c-0.049297-0.219524-0.154221-0.530743-0.325089-0.833637
			c-0.170582-0.300117-0.627697-0.158417-0.952431-0.130604c-0.266758,0.019421-0.410877-0.26263-0.194839-0.890614
			c0.217033-0.630756,1.054153-0.968365,1.4067-1.172592c0.339031-0.195908,0.059753-0.507126,0.179901-0.894741
			c0.207077-0.659994,1.182343-0.954493,1.316074-1.182341c0.103218-0.182034-0.112892-0.564102,0.032295-1.073997
			c0.143837-0.505703,1.131695-1.136532,1.131695-1.136532c-0.097954-0.925255,0.00761-1.886723,0.405327-2.432755
			c0.395584-0.54319,1.143785-0.062531,1.364374,1.422707c0.31015,2.102119-0.572426,3.517853-0.995821,4.400145
			c-0.420979,0.880867-0.589142,0.918354-0.537003,0.965588c0.050011,0.047234,0.264626,0.022194,0.62521-0.482082
			c0.360155-0.509899,1.899595-2.585627,1.584536-4.911394c-0.318825-2.32584-1.561628-2.902393-2.526224-2.39669
			c-0.96246,0.511322-1.117039,1.42548-0.888481,3.124691c0,0-0.551937,0.437622-0.759296,0.810017
			c-0.201813,0.373745-0.103504,1.083675-0.236526,1.180916c-0.130959,0.097244-0.589073,0.339031-0.925327,0.811443
			c-0.336899,0.469563-0.27821,1.071154-0.517155,1.19066c-0.241077,0.125053-1.001728,0.450142-1.324043,1.474064
			c-0.323734,1.023994,0.002422,1.846531,0.485214,1.735348c0.480377-0.106987,1.205246-0.158421,1.169823,0.577972
			c-0.035427,0.73362-0.092762,1.556087,0.017002,2.171551c0,0,0.189007-0.569584,0.348064-0.846085
			c0,0,0.509895,2.552265,1.475132,3.517853c0,0-0.014229-0.352901-0.097954-0.762783
			c-0.084011-0.405685,0.035427-0.600166,0.035427-0.600166s0.108765,0.420979,0.60408,0.393162
			c0.927746-0.041683,1.947542-2.170197,1.947542-2.170197c-0.044178,0.505775,0.098949,0.711353,0.098949,0.711353
			c0.879444-0.965588,1.442196-2.391071,1.669685-3.124619c0.228916-0.732193,0.493538-1.085098,0.493538-1.085098
			s0.108765,0.073627,0.097599,0.348705c-0.014229,0.276505,0.086143,0.554359,0.086143,0.554359
			c1.09029-2.425858,1.357048-4.294508,1.357048-4.294508s0.128185,0.062527,0.201527,0.337608
			c0.072914,0.279278,0.27821,0.518219,0.27821,0.518219c0.637371-2.124313,0.488701-3.398346,0.488701-3.398346
			s0.109051,0.03194,0.314346,0.190285c0.203873,0.156998,0.386551,0.447441,0.386551,0.447441
			c0.05904-1.003147-0.13715-1.724247-0.315701-2.460567c-0.184452-0.73497-0.412655-1.56583-0.412655-1.56583
			c0.356743,0.00832,0.614468,0.276501,0.614468,0.276501c-0.621796-2.471666-1.271259-3.420612-1.271259-3.420612
			s0.111824,0.013872,0.264622,0.033291c0.155643,0.02504,0.373745,0.137577,0.373745,0.137577
			c-0.640503-1.451872-1.560211-2.339712-1.560211-2.339712c0.147606-0.086073,0.5439,0,0.5439,0
			c-1.063187-1.89156-3.323013-2.543159-3.323013-2.543159s1.312943,0.764135,1.959351,1.660229
			c0.061176,0.086855-0.109051,0.195194-0.25182,0.195194c-0.14341,0-0.181965,0.119507-0.120857,0.219524
			c0.061104,0.094538,0.969788,1.044834,1.280293,1.732571c0.062527,0.133379-0.468567,0.013872-0.358452,0.277855
			c0.106277,0.263983,0.955563,1.617262,1.195572,2.592527c0,0-0.734329-0.165318-0.649891,0.072273
			C35.726871,24.340376,36.368725,25.517168,36.972023,27.749891z"/>
		<path class="st0" d="M22.923868,2.079359c0,0-0.737389-0.03827-1.74502,0.091694
			c-1.005569,0.136153-1.393185,0.265335-1.786705,0.30702c-0.390747,0.043108-0.516159,0.036137-0.516159,0.036137
			s0.236525,0.261209,0.537001,0.273728c0.263628,0.008964,0.484503,0.027032,0.652952,0.090271
			c0,0-0.443529,0.071562-1.332722,0.373034c-1.109426,0.382068-1.154526,0.450855-2.291765,0.809306
			c0,0,0.308443,0.166741,0.579397,0.176487c0.250751,0.003414,0.416426,0.111114,0.416426,0.111114
			s-0.796076,0.166741-1.687331,0.509187c-0.89481,0.350128-1.088228,0.566166-1.54641,0.582883
			c0,0,0.229269,0.131956,0.54952,0.161833c0.213263,0.018068,0.443527,0.06459,0.443527,0.06459
			s-0.357027,0.169516-1.176079,0.622434c-0.825312,0.455053-1.065607,0.567589-1.572731,0.710002
			c0,0,0.325443,0.200032,0.634243,0.227135c0.105919,0.009746,0.200743,0.014584,0.305668,0.025681
			c0,0-0.507479,0.329285-1.323757,0.726646c-0.817274,0.390462-0.932585,0.477958-1.214279,0.718324
			c0,0,0.371965,0.030588,0.594263,0.103502c0.073626,0.029877,0.144548,0.052782,0.218172,0.079885
			c0,0-0.530741,0.257011-1.245579,0.74749c-0.756525,0.523058-0.974625,0.860025-0.974625,0.860025
			s1.606092-0.987856,2.982561-1.364376c0.121571-0.033361,0.19804-0.156996,0.063951-0.297344
			C12.420312,8.755195,12.113576,8.5218,12.113576,8.5218s0.088919-0.058331,0.993761-0.490479
			c0.90484-0.433426,1.353918-0.63353,1.474136-0.683538c0.114599-0.055556,0.019421-0.187584-0.063238-0.232043
			c-0.081949-0.047874-0.414009-0.219523-0.414009-0.219523S14.28868,6.7962,14.702332,6.607265
			c0.723162-0.326511,1.80442-0.693285,1.895402-0.732196c0.088278-0.038911,0.093472-0.129182,0.018068-0.197969
			c-0.079529-0.06459-0.350128-0.270243-0.350128-0.270243s0.277214-0.166741,0.846865-0.31264
			c0.56823-0.148602,1.076777-0.31954,1.298006-0.412584c0.186872-0.074337,0.264696-0.183388,0.216394-0.327223
			c-0.032652-0.106277-0.170227-0.30012-0.170227-0.30012s0.309155-0.140279,0.708223-0.26882
			c0.543617-0.169516,0.935431-0.222298,1.428255-0.347354c0.496382-0.129893,0.573492-0.186872,0.580463-0.286889
			c0.00313-0.173-0.109406-0.33277-0.109406-0.33277s0.039551-0.030518,0.646336-0.085434
			c0.608208-0.053493,1.11846-0.066013,1.52066-0.053493c0.399494,0.01252,0.626629,0.048656,0.795433,0.003486
			c0.164963-0.053493,0.230621-0.417493,0.230621-0.417493s0.465794-0.062529,1.146561,0.107627
			c0.67664,0.175776,0.980598,0.277215,1.135105,0.325871c0.158062,0.047234,0.265762-0.001423,0.303249-0.150096
			c0.037846-0.143124,0.093117-0.301472,0.093117-0.301472s0.462307-0.004196,1.17992,0.309794
			c0.764847,0.346003,1.145493,0.639791,1.288975,0.738456c0.108692,0.071563,0.193771-0.02568,0.28653-0.113247
			c0.090984-0.087497,0.172646-0.199322,0.172646-0.199322s0.05698-0.020202,0.266403,0.029877
			c0.204586,0.054134,0.549164,0.238233,0.878448,0.45427c0.325447,0.223721,0.392101,0.391813,0.656082,0.487704
			c0.112892,0.038199,0.221302-0.166741,0.300476-0.351551c0.076754-0.189647,0.168802-0.257012,0.168802-0.257012
			s0.102791,0.013872,0.407108,0.18481c0.308727,0.166741,0.617882,0.386194,0.827301,0.602944
			c0.02298,0.02504,0.061176,0.00626,0.071209-0.018709c0.005905-0.027102,0.021908-0.291085-0.159771-0.518291
			c-0.307732-0.375808-0.877384-0.871763-1.374403-1.203823c-0.496384-0.327222-0.705093-0.448081-0.796432-0.550872
			c-0.041683-0.052142-0.066368-0.100727-0.066368-0.100727s-0.029522,0.198609,0.098309,0.483436
			c0.150379,0.323736,0.131317,0.534937,0.131317,0.534937s-0.536644-0.409882-1.220257-0.701608
			c-0.643276-0.273017-0.825596-0.419627-1.111488-0.577974c-0.31641-0.170917-0.391743-0.241775-0.391743-0.241775
			s0.020771,0.33482,0.152798,0.544598c0.135445,0.211912,0.135445,0.315414,0.135445,0.315414s-0.843666-0.41543-1.964901-0.681476
			c-1.124008-0.254259-1.770061-0.477944-1.770061-0.477944s0.126835,0.379294,0.281342,0.541183
			c0.15287,0.162544,0.219879,0.261209,0.219879,0.261209s-0.940552-0.16539-1.876335-0.218884
			c-0.934649-0.050009-1.314653-0.015294-1.467167-0.028455c-0.049652-0.002063-0.097597-0.00626-0.147249-0.013871
			c0,0,0.038555,0.183387,0.375095,0.344508C22.821434,1.989018,22.923868,2.079359,22.923868,2.079359z"/>
		<path class="st0" d="M37.933846,5.543009c0.325443,0.541838,0.200386,1.550537-0.097244,1.993711
			c-0.299408,0.445309-0.779427,0.727359-1.07848,1.068452c-0.297703,0.345932-0.562042,0.908611-0.687096,1.333788
			c-0.130249,0.425104-0.337254,0.821115-0.699192,0.821115c-0.345928,0-0.661983-0.295282-0.861019-0.721811
			c-0.198681-0.430012-0.244919-1.020435-0.988853-1.414312c-0.741585-0.386976-2.090666-0.852414-2.090666-1.73883
			c0-0.887769,0.861021-1.168468,1.403925-1.874914c0.543972-0.707868,1.33279-1.183051,2.084408-1.183051
			C35.907486,3.827154,37.328411,4.538508,37.933846,5.543009z"/>
		<path class="st0" d="M40.780964,12.359195c-0.090981-0.233395-0.198681-0.426527-0.198681-0.426527
			s0.06324-0.136864,0.253242-0.219524c0.295921-0.126408,0.505344-0.100016,0.5158-0.313992
			c0.041687-0.980173-0.688446-1.632483-0.688446-1.632483c0.09724-0.056269,0.263985-0.02504,0.491829,0.018068
			c0.221943,0.04517,0.2425-0.053495,0.2425-0.053495c-0.354324-1.050383-1.412674-1.722826-1.412674-1.722826
			c0.15493-0.090271,0.379646-0.00761,0.559906,0.045172c0.182388,0.055557,0.336967,0,0.336967,0
			c-0.185165-0.634243-0.651318-1.104517-1.278942-1.422706c-0.625919-0.316766-1.068737-0.334834-1.124722-0.334834
			c-0.052425,0-0.024967,0.070851,0.01181,0.088208c0.059113,0.039622,0.343868,0.186872,0.57769,0.400847
			c0.31086,0.282763,0.328217,0.391813,0.328217,0.391813s0.045811,0.152087-0.236881,0.368196
			c-0.279987,0.220875-0.544327,0.383421-0.577618,0.436913c-0.040333,0.053493-0.01807,0.10905,0.042324,0.145187
			c0.063595,0.034714,0.41785,0.235529,0.833279,0.577974c0.41856,0.346642,0.545681,0.589783,0.446018,0.635664
			c-0.100014,0.045101-0.40049,0.116022-0.334122,0.267399c0.061462,0.158419,0.315701,0.293859,0.495602,0.457115
			c0.182388,0.165318,0.410236,0.333483,0.191425,0.915583c-0.135513,0.362648-0.336258,0.45299-0.51445,0.45299
			c-0.184456,0-0.284473-0.017427-0.257015,0.045811c0.030235,0.063879,0.318546,0.616886,0.190716,0.923906
			c-0.127831,0.307091-0.260853,0.45299-0.651955,0.407106c-0.164322-0.018068-0.217815-0.009745-0.182747,0.054205
			c0.038555,0.066654,0.354324,0.445948,0.254238,1.014248c-0.061108,0.348705-0.359093,0.386194-0.583881,0.261137
			c-0.133022-0.326439-0.27195-0.651598-0.425816-0.976686c-0.05278-0.105566-0.177837-0.15287-0.284824-0.100018
			c-0.102436,0.051361-0.151447,0.176416-0.09724,0.282053c0.040615,0.077749,0.076752,0.158346,0.11602,0.236168
			c0.098309,0.202806,0.18858,0.405685,0.275082,0.602943c0,0.215397-0.011097,0.51132-0.059399,0.712776
			c-0.081593,0.351479-0.318474,0.468212-0.504707,0.069427c-0.190998-0.400135-0.319183-0.922482-0.327507-0.998882
			c-0.009388-0.070921-0.26263,0.048586-0.280342,0.184738c-0.018711,0.137577-0.131958,0.780853-0.379936,0.876673
			c-0.118084,0.047234-0.234104-0.216679-0.234104-0.533516c0-0.318117,0.161831-0.922482-0.236595-1.224024
			c-0.088566-0.068077-0.183743-0.090271-0.303535-0.077751c-0.11602,0.004126-0.174355,0.090271-0.174355,0.090271
			c-0.032295,0.901711-0.263626,1.397738-0.263626,1.397738s0.397362-0.37652,0.397362-0.158419
			c0,0.216749,0.062172,0.930876,0.287243,1.211506c0.228203,0.283475,0.452564,0.380717,0.655727,0.380717
			c0.073341,0-0.039551-0.236171,0.262276-0.550233c0.080242-0.090271,0.144474-0.156996,0.169514-0.065302
			c0.027458,0.091764,0.18232,0.58772,0.69606,0.572427c0.413651-0.015224,0.646408-0.297276,0.767265-0.639081
			c0.949303,2.878776,0.862446,5.681792-0.164608,7.556066c1.267418-1.8715,1.445614-4.910755,0.410522-8.028476
			c0.270245-0.123632,0.781208-0.019421,1.009697-0.473761c0.006969-0.016645,0.012161-0.03194,0.017712-0.048586
			c1.284847,2.659181,1.582191,5.38025,0.851704,7.339246c0.984013-2.02565,0.724937-5.052387-0.745712-7.98672
			c-0.02504-0.205652-0.105991-0.329285-0.105991-0.329285s0.316483-0.226423,0.744003-0.252886
			c0.11396-0.008324,0.186588-0.048586,0.239372-0.108339c1.70504,2.51755,2.393845,5.244807,1.915531,7.333768
			C43.471161,18.227859,42.754257,15.144855,40.780964,12.359195z"/>
		<g>
			<path class="st0" d="M28.31806,5.283224c0.144192,0.081947,0.214329,0.190998,0.0966,0.404262
				c-0.123348,0.213975-0.273727,0.339031-0.574558,0.362648c-0.545322,0.041685-1.040565-0.340383-2.092373-0.297345
				c-0.603298,0.020131-1.301777,0.133378-1.887077,0.417493c-0.584591,0.288311-0.70787,0.371682-0.718609,0.386976
				c-0.010815,0.020843-0.016361-0.100017,0.07085-0.186161c0.224361-0.230692,1.262936-0.994827,2.854729-1.262937
				C27.31811,4.896959,28.037073,5.119256,28.31806,5.283224z"/>
			<path class="st0" d="M27.383413,6.227972c0.029522-0.027814,0.079884-0.020843,0.093754,0.03194
				c0.014584,0.048656,0.065304,0.293149-0.02084,0.586297c-0.085789,0.289023-0.204231,0.523841-0.532448,0.782205
				C26.60811,7.879947,25.988092,7.8049,25.77035,7.342236c-0.220592-0.462664-0.06879-1.257388,0.4505-1.395604
				c0.204227-0.055556,0.264336,0.109762,0.282051,0.235458c0.032295,0.230692-0.093117,0.359874-0.006973,0.539134
				c0.088921,0.179902,0.348064,0.227847,0.578686,0.013872c0.22678-0.215398,0.22678-0.283475,0.260498-0.368196
				C27.368475,6.283528,27.370539,6.241131,27.383413,6.227972z"/>
		</g>
		<path class="st0" d="M35.126278,12.143868c-0.083374-0.097242-0.189293-0.09589-0.196548,0.0695
			c-0.020557,0.270882-0.083015,0.473761-0.281055,0.766909c-0.196548,0.282051-0.261208,0.072203-0.412941,0.190359
			c-0.4123,0.311216-0.235527,0.96559-0.235527,1.308746c0,0.337608-0.086502,0.665472-0.204231,0.615463
			c-0.250751-0.104141-0.395939-0.547386-0.425816-0.69051c-0.06395-0.312569-0.261921-0.272306-0.281342-0.194485
			c-0.094467,0.375097-0.430012,1.257387-0.653732,1.668621c-0.123634,0.233396-0.278564-0.023617-0.35461-0.230621
			c0.178551-0.490477,0.386265-0.985081,0.624855-1.474136c0.041683-0.087496,0.082302-0.172289,0.126762-0.259787
			c0.055271-0.115311,0.007683-0.254238-0.110119-0.312639c-0.111469-0.052782-0.251106,0-0.308086,0.112535
			c-0.379295,0.782204-0.684961,1.576927-0.921843,2.361907c-0.171932,0.341806-0.392452,0.646051-0.618237,0.910034
			c-0.152157,0.172291-0.415783-0.789104-0.822182-0.279205c-0.126049,0.162544-0.534153,0.707155-0.676922,0.900288
			c-0.020844,0.030588-0.040691,0.043037-0.050365,0.043037c0.343513-0.910034,0.800915-1.82697,1.375828-2.716161
			c0.050365-0.075048,0.096176-0.15287,0.148602-0.225073c0.062172-0.098663,0.02924-0.225071-0.063168-0.291796
			c-0.102859-0.062529-0.230621-0.03194-0.293503,0.066725c-0.523842,0.807171-0.952076,1.64223-1.28307,2.468894
			c-0.10841-0.423754-0.492538-0.005548-0.660633,0.215326c-0.186588,0.245914-0.41095,0.543261-0.473476,0.414007
			c-0.008678-0.020842-0.031586-0.125055-0.045456-0.209778c-0.027458-0.172289-0.175774-0.243141-0.364712-0.254238
			c0.306667-0.532162,0.658855-1.057283,1.056217-1.569957c0.047592-0.063951,0.098312-0.129253,0.148319-0.19178
			c0.067364-0.080597,0.047943-0.201456-0.034714-0.26811c-0.083015-0.065302-0.202168-0.050007-0.267113,0.03194
			c-0.513027,0.659922-0.944748,1.343534-1.301849,2.029847c-0.157349,0.03194-0.304955,0.075048-0.414364,0.109762
			c-0.350838,0.119507-0.719673,0.247337-0.719673,0.247337c0.011806-0.144547-0.026035-0.334835-0.191071-0.477959
			c-0.163258-0.148672-0.857182-0.01387-1.112484-0.043108c-0.260853-0.033291-0.300121-0.105564-0.260853-0.24869
			c0.110115-0.387615-0.230339-0.568228-0.624214-0.654373c-0.394234-0.087497-0.570648-0.186162-0.570648-0.186162
			c0.136154-0.379293-0.448437-0.641926-0.789886-0.801695c-0.339315-0.158348-0.744003-0.393166-0.744003-0.393166
			s0,0-0.031584-0.305668c-0.034075-0.401487-0.512318-0.536289-0.799206-0.769684
			c-0.285538-0.230621-0.406752-0.682188-0.406752-0.682188s0,0.059753,0.096174,0.479309
			c0.092051,0.419628,0.471344,0.608564,0.581104,0.901712c0.109407,0.289022-0.079884,0.522417-0.079884,0.522417
			c0.257723,0.202806,0.597466,0.377871,1.031603,0.652952c0.436628,0.27515,0.109407,0.522418,0.109407,0.522418
			c0.258078,0.218172,0.748201,0.437696,1.20944,0.58217c0.462666,0.145899,0.08202,0.523769,0.08202,0.523769
			c0.489697,0.250113,1.113197,0.434851,1.479973,0.465439c0.366489,0.02504,0.094467,0.534939,0.094467,0.534939
			c0.34145,0.116661,0.599171,0.059681,1.429321-0.143126c0.094822-0.022264,0.178192-0.037487,0.250824-0.045881
			c-0.928104,2.141741-1.102173,4.277153-0.464443,5.842983c-0.484859-1.618612-0.197613-3.734604,0.802689-5.826267
			c0.222015,0.076399,0.197685,0.279278,0.144905,0.394588c-0.079887,0.173641-0.014584,0.39039,0.123276,0.33206
			c0.70858-0.304317,1.113197-0.918428,1.291035-0.918428c0.045883,0,0.076828,0.045881,0.097313,0.098663
			c-0.762428,2.382038-0.729774,4.675938,0.098595,6.290356c-0.596684-1.496332-0.594265-3.460876,0.00626-5.513699
			c0.441822-0.237593,0.596756-0.579327,0.86977-0.815567c0.270531-0.230621,0.37965-0.116663,0.421337,0.059753
			c0.052425,0.230621-0.136154,0.625208,0.094467,0.530741c0.284824-0.122282,0.507481-0.286177,0.683182-0.458467
			c-0.416424,2.565424-0.058685,4.916233,1.015314,6.495934c-1.012896-1.847809-1.188242-4.518229-0.452917-7.335117
			c0.040264-0.09724,0.065231-0.170866,0.085789-0.204229c0.077396-0.144476,0.175705,0.037489,0.18787,0.259787
			c0.015293,0.226496,0.040333,0.370972,0.185163,0.293148c0.714481-0.368196,1.195145-1.522723,1.238251-1.763089
			c0.01807-0.098665,0.084084-0.034714,0.178196,0.051432c0.332058,0.302894,0.246269,0.565455,0.319538,0.557132
			c0.201099-0.02639,0.412655-0.155643,0.611336-0.479383c0.193417-0.325087,0.155575-1.091997,0.155575-1.325392
			c0-0.233467,0.396366,0.176414,0.396366,0.176414s0.257011-0.505701,0.301826-1.436577
			C35.311443,12.55375,35.223873,12.253631,35.126278,12.143868z"/>
		<g>
			<path class="st0" d="M28.880098,17.863859c-0.020485-0.052782-0.05143-0.098663-0.097313-0.098663
				c-0.017357,0-0.04652,0.027813-0.068432,0.040333c0.048302,0.048586,0.093117,0.100018,0.141064,0.148674
				C28.864096,17.923615,28.870356,17.894447,28.880098,17.863859z"/>
			<path class="st0" d="M24.567167,16.737076c-0.039268,0.143126,0,0.215399,0.260853,0.24869
				c0.156994,0.016718,0.472336-0.020842,0.73497-0.023617c-0.325161-0.183386-0.658928-0.354254-1.005569-0.49873
				C24.587652,16.542593,24.597681,16.628738,24.567167,16.737076z"/>
			<path class="st0" d="M26.329897,17.438755c-0.073624-0.05143-0.14867-0.101439-0.225071-0.151447
				c0.023617,0.076401,0.032295,0.154222,0.026749,0.219524C26.131575,17.506832,26.213522,17.477594,26.329897,17.438755z"/>
			<path class="st0" d="M28.492056,19.452597c0.085506-0.491119,0.204941-0.991272,0.363361-1.498394
				c-0.047947-0.048656-0.092762-0.100088-0.141064-0.148674c-0.177128,0.087498-0.503922,0.47234-1.01318,0.757164
				C27.98358,18.840618,28.243368,19.142801,28.492056,19.452597z"/>
			<path class="st0" d="M29.288202,18.42654c-0.086143,0.077822-0.182034,0.148672-0.303249,0.213976
				c-0.111115,0.382778-0.180969,0.756523-0.252529,1.127493c1.193863,1.619965,1.922218,3.605352,1.963547,5.761679
				c0.057621-0.038914,0.109406-0.080597,0.173286-0.11396c0.342518-0.180614,0.719746-0.213974,1.079906-0.091694
				c-0.015297-0.433498-0.061817-0.862801-0.123989-1.28513c-0.474476-0.843382-0.770397-1.867304-0.881226-2.999636
				C30.511873,20.090324,29.951254,19.212231,29.288202,18.42654z"/>
			<path class="st0" d="M22.450819,15.843759c0.018423-0.093117-0.017073-0.215399-0.220947-0.343227
				c-0.434137-0.275082-0.77388-0.450146-1.031603-0.652952c0,0,0.127474-0.173712,0.100086-0.40291
				c-0.212978-0.01252-0.423468-0.03194-0.639151-0.03194c-2.424433,0-4.665481,0.769686-6.507388,2.070111
				c0.627626,0.248688,0.589428,0.810017,0.465439,1.226799c1.683204-1.269836,3.771737-2.034043,6.041949-2.034043
				C21.271608,15.675595,21.868647,15.739545,22.450819,15.843759z"/>
			<path class="st0" d="M10.755532,27.330263c-0.421335,0.352901-0.879517,0.382069-1.239676,0.245914
				c0.887129,5.362963,5.531055,9.454592,11.143348,9.454592c2.044146,0,3.955906-0.550159,5.610939-1.497681
				c-0.187225-0.282051-0.24762-0.815567-0.073978-1.43103c-1.588024,1.050312-3.489401,1.664425-5.536961,1.664425
				C15.662375,35.766483,11.525928,32.109699,10.755532,27.330263z"/>
			<path class="st0" d="M8.57801,25.751986c-0.490051-0.097244-1.00621-0.065304-1.349721-0.0042
				c-0.809663,0.14035-1.247358,0.220947-1.247358,0.220947s0.136509-0.216747,0.200815-0.366844
				c0.062813-0.155575-0.087923-0.191711-0.171578-0.177837c-0.08337,0.016716-0.684608,0.022263-1.203183,0.10976
				c-0.515801,0.084793-1.094487-0.083298-1.094487-0.083298c0.117728-0.10009,0.190998-0.269604,0.206292-0.358524
				c0.00939-0.047234-0.01316-0.09724-0.116022-0.158348c-0.103501-0.058331-0.392809-0.194481-0.957623-0.07917
				C1.660385,25.098963,1.280025,24.6252,1.280025,24.6252s0.061176-0.623856,0.327933-1.55331
				c0.402554-1.40044,0.90726-2.124313,0.942685-2.209106c0.036138-0.084723-0.047945-0.154222-0.096246-0.166672
				c-0.050364-0.01252-0.640502,0.038841-0.640502,0.038841s0.303605-0.809948,0.952786-2.077791
				c0.651955-1.264288,0.843308-1.749147,0.908611-1.992287c0.110473-0.407108-0.520639-0.244564-0.520639-0.244564
				s0.251107-0.444596,0.616885-0.930877c0.358451-0.491831,0.866287-1.000305,0.939555-1.094774
				c0.075047-0.098663,0.020487-0.125055-0.042397-0.133377C4.599555,14.25986,4.285279,14.24734,4.285279,14.24734
				s0.226423-0.345932,0.867637-0.868349c0.643989-0.514025,0.899222-0.725225,0.940907-0.766911
				c0.093116-0.091694,0.098664-0.156996,0.005263-0.205652c-0.040689-0.022194-0.23937-0.095819-0.23937-0.095819
				s0.198682-0.190357,0.777012-0.44673c0.576266-0.252104,1.023637-0.314631,1.130624-0.345219
				c0.102436-0.030588,0.063524-0.097954,0.043037-0.130606c-0.01565-0.031939-0.261564-0.204229-0.261564-0.204229
				s0.177198-0.137575,0.753038-0.391813c0.573492-0.257011,1.114618-0.316765,1.114618-0.316765
				s-0.657503-0.155643-2.385166,0.414719c-1.338981,0.446659-1.915604,0.896803-1.915604,0.896803
				s0.231333-0.056908,0.454698-0.084723c0.226495-0.02639,0.387616-0.00135,0.387616-0.00135s-0.789175,0.388968-1.511271,0.873898
				c-0.721455,0.489054-0.887129,0.676567-0.887129,0.676567s0.205297-0.041685,0.381783-0.030518
				c0.236169,0.015295,0.426883-0.075047,0.426883-0.075047s-0.824245,0.636305-1.420999,1.328238
				c-0.595332,0.691862-0.761006,1.01005-0.761006,1.01005s0.241007-0.12228,0.510538-0.184809
				c0.275792-0.068077,0.371682,0,0.371682,0s-0.223365,0.40156-0.61027,0.866998
				c-0.384486,0.464016-0.665827,0.937849-0.845798,1.33514c-0.178194,0.396009-0.21049,0.591915-0.21049,0.591915
				s0.226851-0.015293,0.436985-0.158417c0.209422-0.145899,0.37474-0.150024,0.37474-0.150024s-0.94923,2.08334-1.1955,3.297619
				c-0.095179,0.480732-0.193132,0.84338-0.313992,1.110138c0,0,0.266047-0.059753,0.483151-0.218172
				c0.216393-0.156996,0.254949-0.168093,0.254949-0.168093s-0.608207,1.960419-0.490122,3.037123
				c0.007327,0.05698,0.844021,0.604366,1.61719,0.470985c0,0-0.030873,0.14035-0.431365,0.219524
				c-0.396294,0.080597-0.576267,0.280701-0.576267,0.280701c0.458894,0.004124,1.215703,0.284824,1.995844,0.334835
				c0.781492,0.047234,1.450165-0.050011,1.450165-0.050011s-0.055913,0.100018-0.32893,0.208355
				c-0.357811,0.144547-0.684963,0.189007-0.684963,0.189007s0.096175,0.090271,0.362293,0.152802
				c0.262205,0.061104,0.935358,0.030586,1.64223-0.118088c0.701252-0.147247,1.139588-0.1348,1.851296-0.163967
				c0.70993-0.024967,0.858959,0.494606,1.2056,0.898937c0.111826,0.129185,0.274441,0.238945,0.460602,0.309795
				c-0.055912-0.334835-0.096958-0.672443-0.121925-1.018372C9.043447,26.270205,8.955239,25.832579,8.57801,25.751986z"/>
			<path class="st0" d="M32.069023,24.452909c-0.102861-0.186161-0.191423-0.387615-0.276503-0.591843
				c0.009747,0.059753,0.022907,0.119434,0.032654,0.177837C31.903349,24.180605,31.980104,24.323729,32.069023,24.452909z"/>
			<path class="st0" d="M27.389601,18.283487c-0.006187,0.023617-0.013161,0.048586-0.021126,0.068077
				c-0.079887,0.173641-0.014584,0.39039,0.123276,0.33206c0.078178-0.034786,0.138218-0.080597,0.209423-0.120932
				C27.601156,18.465452,27.493814,18.376532,27.389601,18.283487z"/>
			<path class="st0" d="M28.978693,24.154215c-0.485924-1.217127-0.552578-2.750946-0.246269-4.386206
				c-0.077751-0.105635-0.157639-0.212622-0.240368-0.315413C28.178778,21.24485,28.33684,22.903797,28.978693,24.154215z"/>
			<path class="st0" d="M25.940504,17.028873c-0.062813-0.05698-0.212551-0.066725-0.377514-0.066725
				c0.184738,0.104214,0.365704,0.211201,0.541836,0.325159C26.078436,17.196966,26.030489,17.106695,25.940504,17.028873z"/>
		</g>
		<path class="st0" d="M18.87698,25.374041c-0.121569,0-0.23752,0.02504-0.343512,0.063953
			c-0.394516,0.140278-0.68112,0.514023-0.68112,0.961391c0,0.565525,0.462664,1.023994,1.024632,1.023994
			c0.230337,0,0.438051-0.080597,0.608919-0.207005c0.252174-0.184811,0.413366-0.479382,0.413366-0.81699
			C19.899265,25.831156,19.440727,25.374041,18.87698,25.374041z"/>
		<path class="st0" d="M24.86828,28.537642l-0.177837-0.156994l-0.061817-0.230621l-0.093472-0.091694l0.022266-0.050007
			l-0.046879-0.026463l-0.023617-0.077751l0.002419-0.052784l-0.784267-0.775303l-0.175419-0.163967l-0.97434-0.932228
			l-0.509542-0.459888l-0.431364-0.390392l-0.550161-0.480732l-0.14035-0.130604l-0.186872-0.162544l-0.222298-0.190357
			l-0.105564-0.087498V21.21291h-3.176121l-0.027103,0.100018l-0.016289,0.048656l0.016289,0.040262l0.052498,0.048656
			l0.016645,0.040262l0.021198,0.088921l0.045172,0.075047h-0.027102l0.036421,0.081947l-0.022194,0.051432l-0.028456,0.118084
			v0.080597l-0.02504-0.009745l-0.016645,0.043108l0.041685,0.116661l-0.175419,0.393236l-0.043108,0.102791v0.056978
			l0.02817,0.038912l0.014938,0.040262L17.109766,22.8232l0.009674,0.022194l0.13409,0.12648l0.060822,0.037487l0.019419,0.068077
			l0.042753,0.038912l0.060749,0.088919l0.023617,0.041685l0.066013,0.061106v0.052853l0.018068,0.050009l0.016291,0.131956
			l-0.022194,0.056978l-0.01878,0.062529v0.086145l0.01878,0.063879l0.041685,0.104212l0.041328,0.090343l-0.028809,0.102791
			l0.015577,0.033363l0.04133,0.041683l0.05385,0.056908l0.068787,0.066727l0.011808,0.024967l0.04133,0.015293l0.03507,0.052784
			l0.066368,0.105637l0.04759,0.030518l0.094467,0.062527l0.04133,0.10841h0.026035l0.042751,0.033363l0.011808,0.02639
			c0.030874-0.013943,0.055557-0.034786,0.087141-0.045883c0.186234-0.068073,0.387688-0.111111,0.599529-0.111111
			c0.983303,0,1.784998,0.797497,1.784998,1.788055c0,0.582172-0.27508,1.089294-0.703386,1.41161l-0.011452,0.05698v0.045811
			l-0.007612,0.022266l0.036066,0.066654l-0.014227,0.045879l0.014227,0.070854l-0.028454,0.112534l0.00626,0.050011
			l0.08963,0.019489l0.048941,0.074978l0.365778,0.008392l0.04759,0.02639l0.1698,0.019421l0.06082-0.019421l0.110474,0.030518
			l0.080524,0.086147l0.068434,0.02504l0.054916,0.130604l0.047945,0.041683l0.121925,0.03194l0.014584,0.011097l0.086784,0.015293
			l0.028524,0.019421l0.18474-0.019421l0.05456,0.03194l0.06772,0.145901v0.027813l-0.022549,0.048584l0.096886,0.048656
			l0.026392-0.043106l0.046877-0.016647l0.062883,0.016647l0.113604,0.101437l0.04133,0.036137l0.043036,0.015297l0.113249,0.119434
			l0.07398,0.045883l0.109051,0.116734l0.144901,0.273659l0.018354,0.101437l-0.018354,0.061104l0.03507,0.083374l-0.021553,0.02084
			v0.038914l0.011808,0.01252l0.029165-0.03194l0.010456-0.004196l0.057619,0.043106l0.006617,0.048584l-0.055557-0.048584
			h-0.013231l0.013231,0.023617l0.029165,0.037487v0.077824l0.768332-0.08337l1.038506-0.098663l0.111542-0.001354
			l0.028454-0.029236l0.018425-0.069427l0.037132-0.03891V29.77696l-0.043751-0.045879l-0.096245-0.006901l-0.031227-0.02639
			l-0.009037-0.047306l0.013233-0.130535l-0.036137-0.03891l0.016644-0.050007l-0.004837-0.045883l0.027103-0.023617
			l0.064945-0.066727l-0.014938-0.024967l0.044106-0.01252l0.030872-0.084721l-0.013161-0.063953l0.020134-0.029163
			l-0.01807-0.186161l0.066013-0.063881l-0.003841-0.022266l0.027458-0.061104l0.179901-0.154221l0.044815-0.01807
			L24.86828,28.537642z"/>
	</g>
</g>
</svg>
